<?xml version="1.0" encoding="utf-8"?>
<!-- Generator: Adobe Illustrator 21.0.0, SVG Export Plug-In . SVG Version: 6.00 Build 0)  -->
<svg version="1.1" id="Capa_1" xmlns="http://www.w3.org/2000/svg" xmlns:xlink="http://www.w3.org/1999/xlink" x="0px" y="0px"
	 viewBox="0 0 48 48" style="enable-background:new 0 0 48 48;" xml:space="preserve">
<style type="text/css">
	.st0{fill:#5F6368;}
	.st1{fill:#0A858D;}
	.st2{fill:#626262;}
	.st3{fill:#FFFFFF;}
</style>
<path class="st3" d="M44.2,34C42.4,32,39,29.1,39,19.5C39,12.2,33.9,6.4,27,5V3c0-1.7-1.3-3-3-3c-1.7,0-3,1.3-3,3v2
	C14.1,6.4,9,12.2,9,19.5C9,29.1,5.6,32,3.8,34C3.2,34.6,3,35.3,3,36c0,1.5,1.2,3,3,3h36c1.8,0,3-1.5,3-3C45,35.3,44.8,34.6,44.2,34
	L44.2,34z M9.3,34.5c2-2.6,4.2-7,4.2-14.9c0,0,0,0,0-0.1C13.5,13.7,18.2,9,24,9s10.5,4.7,10.5,10.5c0,0,0,0,0,0.1
	c0,8,2.2,12.3,4.2,14.9H9.3z M24,48c3.3,0,6-2.7,6-6H18C18,45.3,20.7,48,24,48z"/>
</svg>
