<svg xmlns="http://www.w3.org/2000/svg" viewBox="0 0 31.667 38"><defs><style>.a{fill:#407f87;}</style></defs><g transform="translate(-5)"><path class="a" d="M36.033,36.733h-1.9V34.2H30.967V27.726a5.1,5.1,0,0,0-2.273-4.247L21.975,19l6.718-4.479a5.1,5.1,0,0,0,2.273-4.247V3.8h3.167V1.267h1.9a.633.633,0,0,0,0-1.267H5.633a.633.633,0,0,0,0,1.267h1.9V3.8H10.7v6.474a5.1,5.1,0,0,0,2.273,4.247L19.691,19l-6.718,4.479A5.1,5.1,0,0,0,10.7,27.726V34.2H7.533v2.533h-1.9a.633.633,0,1,0,0,1.267h30.4a.633.633,0,0,0,0-1.267ZM8.8,2.533V1.267H32.867V2.533H8.8Zm4.875,10.934a3.832,3.832,0,0,1-1.709-3.193V3.8H29.7v6.474a3.832,3.832,0,0,1-1.709,3.193l-7.158,4.772ZM11.967,27.726a3.832,3.832,0,0,1,1.709-3.193l7.158-4.772,7.158,4.772A3.832,3.832,0,0,1,29.7,27.726V34.2H11.967ZM8.8,35.467H32.867v1.267H8.8Z"/><path class="a" d="M19.847,16.126a1.3,1.3,0,0,1-.581-1.086V13.633a.633.633,0,0,0-1.267,0v1.407a2.565,2.565,0,0,0,1.145,2.139l2.937,1.958a.633.633,0,1,0,.7-1.054Z" transform="translate(-4.767 -4.767)"/><path class="a" d="M37.921,40.064l-2.937-1.958a.633.633,0,0,0-.7,1.054l2.937,1.958A1.3,1.3,0,0,1,37.8,42.2v1.407a.633.633,0,1,0,1.267,0V42.2A2.564,2.564,0,0,0,37.921,40.064Z" transform="translate(-10.633 -13.933)"/></g></svg>