<svg xmlns="http://www.w3.org/2000/svg" viewBox="0 0 37.5 37.5"><defs><style>.a{fill:#407f87;}</style></defs><g transform="translate(21.973 13.916)"><path class="a" d="M300.732,190a.732.732,0,1,0,.732.732A.733.733,0,0,0,300.732,190Z" transform="translate(-300 -190)"/></g><path class="a" d="M36.642,32.5l-9.776-9.776A14.517,14.517,0,0,0,29.3,14.648,14.648,14.648,0,1,0,14.648,29.3a14.518,14.518,0,0,0,8.074-2.431l2.7,2.7h0L32.5,36.642A2.929,2.929,0,1,0,36.642,32.5ZM22.378,25.322h0a13.2,13.2,0,1,1,2.944-2.944A13.248,13.248,0,0,1,22.378,25.322Zm1.537.664a14.7,14.7,0,0,0,2.071-2.071l2.078,2.078a17.778,17.778,0,0,1-2.071,2.071Zm11.691,9.62a1.464,1.464,0,0,1-2.071,0l-6.5-6.5A19.246,19.246,0,0,0,29.1,27.031l6.5,6.5a1.464,1.464,0,0,1,0,2.071Z"/><g transform="translate(2.93 2.93)"><path class="a" d="M51.719,40A11.719,11.719,0,1,0,63.438,51.719,11.732,11.732,0,0,0,51.719,40Zm0,21.973A10.254,10.254,0,1,1,61.973,51.719,10.266,10.266,0,0,1,51.719,61.973Z" transform="translate(-40 -40)"/></g><g transform="translate(13.916 5.859)"><path class="a" d="M198.94,85.645A8.8,8.8,0,0,0,190.732,80a.732.732,0,0,0,0,1.465,7.374,7.374,0,0,1,6.841,4.706.732.732,0,1,0,1.367-.525Z" transform="translate(-190 -80)"/></g></svg>