<svg xmlns="http://www.w3.org/2000/svg" viewBox="0 0 42.96 37.398"><defs><style>.a{fill:#407f87;}</style></defs><g transform="translate(0.001 -33.143)"><g transform="translate(-0.001 33.143)"><g transform="translate(0 0)"><path class="a" d="M42.844,69.257,22.22,33.571a.856.856,0,0,0-1.482,0L.114,69.257a.856.856,0,0,0,.741,1.284H42.1a.856.856,0,0,0,.741-1.284ZM2.338,68.829l19.141-33.12L40.62,68.829Z" transform="translate(0.001 -33.143)"/></g></g><g transform="translate(11.181 54.837)"><g transform="translate(0 0)"><path class="a" d="M134.894,291.809a.856.856,0,0,0-1.169.313l-.346.6a.856.856,0,1,0,1.482.856l.346-.6A.856.856,0,0,0,134.894,291.809Z" transform="translate(-133.264 -291.694)"/></g></g><g transform="translate(5.048 58.774)"><g transform="translate(0 0)"><path class="a" d="M65.661,338.728a.856.856,0,0,0-1.169.313l-4.2,7.274a.856.856,0,1,0,1.482.856l4.2-7.274A.856.856,0,0,0,65.661,338.728Z" transform="translate(-60.173 -338.613)"/></g></g><g transform="translate(18.294 60.533)"><path class="a" d="M221.222,359.579a3.185,3.185,0,1,0,3.185,3.185A3.189,3.189,0,0,0,221.222,359.579Zm0,4.659a1.474,1.474,0,1,1,1.474-1.474A1.475,1.475,0,0,1,221.222,364.238Z" transform="translate(-218.037 -359.579)"/></g><g transform="translate(18.294 44.226)"><g transform="translate(0 0)"><path class="a" d="M222.537,165.227h-2.63a1.872,1.872,0,0,0-1.87,1.87v11.679a1.872,1.872,0,0,0,1.87,1.87h2.63a1.872,1.872,0,0,0,1.87-1.87V167.1A1.872,1.872,0,0,0,222.537,165.227Zm.159,13.549a.159.159,0,0,1-.159.159h-2.63a.159.159,0,0,1-.159-.159V167.1a.159.159,0,0,1,.159-.159h2.63a.159.159,0,0,1,.159.159Z" transform="translate(-218.037 -165.227)"/></g></g></g></svg>