<?xml version="1.0" encoding="utf-8"?>
<!-- Generator: Adobe Illustrator 21.0.0, SVG Export Plug-In . SVG Version: 6.00 Build 0)  -->
<svg version="1.1" id="Capa_1" xmlns="http://www.w3.org/2000/svg" xmlns:xlink="http://www.w3.org/1999/xlink" x="0px" y="0px"
	 viewBox="0 0 63 57.7" style="enable-background:new 0 0 63 57.7;" xml:space="preserve">
<style type="text/css">
	.st0{fill:#777777;}
</style>
<g>
	<path class="st0" d="M56.3,11.5c0-0.3-0.3-0.6-0.6-0.6c-16.5,0-33.1,0-49.6,0c-0.3,0-0.6,0.3-0.6,0.6c0,1.1,0.1,0.3,0.1,1.4
		c0,0.3,0.3,0.6,0.6,0.6c7.5,0,16.1,0.2,23.6,0.2c0,12.7,0,22.3,0,35c0,0.3,0.3,0.5,0.6,0.5c1.2,0,0.2,0,1.3,0
		c0.3,0,0.6-0.3,0.6-0.6c0-12.7,0-22.2,0-34.9c7.5,0,16,0,23.5,0c0.2,0,0.3-0.1,0.4-0.1c0,0,0,0,0,0c0,0,0,0,0,0
		c0.1-0.1,0.1-0.2,0.1-0.4C56.3,12.1,56.3,12.6,56.3,11.5z M28.8,49.4"/>
	<path class="st0" d="M46.2,37.5h-8.3c-0.5,0-0.9-0.4-0.9-0.9v-0.4c0-0.5,0.4-0.9,0.9-0.9h8.3c0.5,0,0.9,0.4,0.9,0.9v0.4
		C47.1,37.1,46.7,37.5,46.2,37.5z"/>
	<path class="st0" d="M53.3,28.7H37.9c-0.5,0-0.9-0.5-0.9-1v-0.2c0-0.6,0.4-1,0.9-1h15.4c0.5,0,0.9,0.5,0.9,1v0.2
		C54.2,28.3,53.8,28.7,53.3,28.7z"/>
	<path class="st0" d="M23.3,28.9H7.9C7.4,28.9,7,28.5,7,28v-0.4c0-0.5,0.4-0.9,0.9-0.9h15.4c0.5,0,0.9,0.4,0.9,0.9V28
		C24.3,28.5,23.9,28.9,23.3,28.9z"/>
	<path class="st0" d="M23.3,20.1h-8.7c-0.5,0-0.9-0.4-0.9-0.9v-0.4c0-0.5,0.4-0.9,0.9-0.9h8.7c0.5,0,0.9,0.4,0.9,0.9v0.4
		C24.3,19.7,23.9,20.1,23.3,20.1z"/>
</g>
</svg>
