<?xml version="1.0" encoding="utf-8"?>
<!-- Generator: Adobe Illustrator 21.0.0, SVG Export Plug-In . SVG Version: 6.00 Build 0)  -->
<svg version="1.1" id="Capa_1" xmlns="http://www.w3.org/2000/svg" xmlns:xlink="http://www.w3.org/1999/xlink" x="0px" y="0px"
	 viewBox="0 0 30 30" style="enable-background:new 0 0 30 30;" xml:space="preserve">
<style type="text/css">
	.st0{fill:#5F6368;}
	.st1{fill:#0A858D;}
	.st2{fill:#626262;}
	.st3{fill:#424242;}
</style>
<g>
	<path class="st0" d="M22.4,27.8h-0.6c-0.6,0-1.2-0.2-1.6-0.6H3.1v-1.5c0-2.8,2.3-5.1,5.1-5.1c0.9,0,2.2,0.9,5.3,0.9
		c3,0,4.4-0.9,5.3-0.9c1.5,0,2.8,0.6,3.7,1.7v-0.4c0-1,0.5-1.8,1.3-2.3c-1.4-1.2-3.1-1.8-5.1-1.8c-1.7,0-2.5,0.9-5.3,0.9
		s-3.6-0.9-5.3-0.9c-4.3,0-7.9,3.5-7.9,7.9v1.5c0,1.6,1.3,2.8,2.8,2.8h19.9c-0.4-0.4-0.6-1-0.6-1.6V27.8z"/>
	<path class="st0" d="M13.4,16.9c4.7,0,8.4-3.8,8.4-8.4S18,0,13.4,0S4.9,3.8,4.9,8.4S8.7,16.9,13.4,16.9z M13.4,2.8
		c3.1,0,5.6,2.5,5.6,5.6s-2.5,5.6-5.6,5.6s-5.6-2.5-5.6-5.6S10.3,2.8,13.4,2.8z"/>
	<path class="st0" d="M28.2,23.6h-1.4c-0.1-0.3-0.2-0.6-0.3-0.9v-0.7c0-0.8-0.6-1.4-1.3-1.5c-0.1,0-0.2,0-0.3,0
		c-0.2,0-0.3,0-0.5,0.1c-0.6,0.2-1.1,0.8-1.1,1.5v0.9v0.8h-0.2h-1.5c-0.9,0-1.6,0.7-1.6,1.6s0.7,1.6,1.6,1.6h1.7V27v0.2v1.2
		c0,0.7,0.5,1.3,1.1,1.5c0,0,0,0,0,0c0.1,0,0.3,0.1,0.4,0.1c0.8,0,1.4-0.6,1.5-1.3c0-0.1,0-0.2,0-0.3v-1.7H27h1.2
		c0.9,0,1.6-0.7,1.6-1.6S29,23.6,28.2,23.6z"/>
</g>
</svg>
