<?xml version="1.0" encoding="utf-8"?>
<!-- Generator: Adobe Illustrator 21.0.0, SVG Export Plug-In . SVG Version: 6.00 Build 0)  -->
<svg version="1.1" id="Capa_1" xmlns="http://www.w3.org/2000/svg" xmlns:xlink="http://www.w3.org/1999/xlink" x="0px" y="0px"
	 viewBox="0 0 63 57.7" style="enable-background:new 0 0 63 57.7;" xml:space="preserve">
<style type="text/css">
	.st0{fill:none;stroke:#777777;stroke-width:2;stroke-miterlimit:10;}
	.st1{fill:none;stroke:#777777;stroke-width:1.5;stroke-miterlimit:10;}
	.st2{fill:none;stroke:#777777;stroke-width:1.2;stroke-miterlimit:10;}
</style>
<g>
	<path class="st0" d="M48.8,48.5H14.2c-1.3,0-2.3-1-2.3-2.3V13.5c0-1.3,1-2.3,2.3-2.3h34.6c1.3,0,2.3,1,2.3,2.3v32.7
		C51.1,47.4,50.1,48.5,48.8,48.5z"/>
	<g>
		<path class="st1" d="M41.2,32.5l-2.5-0.3c-0.1-0.2-0.2-0.4-0.2-0.6l1.5-2c0.2-0.3,0.2-0.7-0.1-0.9l-2.3-2.3
			c-0.2-0.2-0.6-0.2-0.9-0.1l-2,1.5c-0.2-0.1-0.4-0.2-0.6-0.2l-0.3-2.5c-0.1-0.3-0.3-0.6-0.7-0.6h-3.3c-0.3,0-0.6,0.2-0.7,0.6
			l-0.3,2.5c-0.2,0.1-0.4,0.2-0.6,0.2l-2-1.5c-0.3-0.2-0.7-0.2-0.9,0.1l-2.3,2.3c-0.2,0.2-0.2,0.6-0.1,0.9l1.5,2
			c-0.1,0.2-0.2,0.4-0.2,0.6l-2.5,0.3c-0.3,0.1-0.6,0.3-0.6,0.7v3.3c0,0.3,0.2,0.6,0.6,0.7l2.5,0.3c0.1,0.2,0.2,0.4,0.2,0.6L23,40
			c-0.2,0.3-0.2,0.7,0.1,0.9l2.3,2.3c0.2,0.2,0.6,0.2,0.9,0.1l2-1.5c0.2,0.1,0.4,0.2,0.6,0.2l0.3,2.5c0.1,0.3,0.3,0.6,0.7,0.6h3.3
			c0.3,0,0.6-0.2,0.7-0.6l0.3-2.5c0.2-0.1,0.4-0.2,0.6-0.2l2,1.5c0.3,0.2,0.7,0.2,0.9-0.1l2.3-2.3c0.2-0.2,0.2-0.6,0.1-0.9l-1.5-2
			c0.1-0.2,0.2-0.4,0.2-0.6l2.5-0.3c0.3-0.1,0.6-0.3,0.6-0.7v-3.3C41.8,32.8,41.5,32.5,41.2,32.5z"/>
		<path class="st1" d="M31.5,30.6c-2.3,0-4.2,1.9-4.2,4.2c0,2.3,1.9,4.2,4.2,4.2c2.3,0,4.2-1.9,4.2-4.2
			C35.7,32.5,33.9,30.6,31.5,30.6z"/>
	</g>
	<circle class="st2" cx="41.3" cy="16" r="1.7"/>
	<circle class="st2" cx="36" cy="16" r="1.7"/>
	<circle class="st2" cx="46.6" cy="16" r="1.7"/>
	<line class="st1" x1="12.5" y1="19.9" x2="50.8" y2="19.9"/>
</g>
</svg>
