<?xml version="1.0" encoding="utf-8"?>
<!-- Generator: Adobe Illustrator 21.0.0, SVG Export Plug-In . SVG Version: 6.00 Build 0)  -->
<svg version="1.1" id="Capa_1" xmlns="http://www.w3.org/2000/svg" xmlns:xlink="http://www.w3.org/1999/xlink" x="0px" y="0px"
	 viewBox="0 0 63 57.7" style="enable-background:new 0 0 63 57.7;" xml:space="preserve">
<style type="text/css">
	.st0{fill:#777777;}
</style>
<g>
	<g>
		<g>
			<g>
				<path class="st0" d="M41.3,22.4c0-1.3,0-2.7,0-4c0-0.6,0.1-1.3-0.3-1.8c-0.2-0.2-0.4-0.4-0.6-0.6c-2.1-2.2-4.3-4.4-6.4-6.6
					c-0.2-0.2-0.4-0.4-0.6-0.6c-0.3-0.3-0.6-0.3-1-0.3c-1,0-1.9,0-2.9,0c-3.4,0-6.7,0-10.1,0c-2.3,0-4.6-0.1-6.9,0c0,0-0.1,0-0.1,0
					c-0.5,0-0.9,0.4-0.9,0.9c0,1,0,2,0,3c0,2.4,0,4.8,0,7.2c0,2.9,0,5.8,0,8.8c0,2.5,0,5,0,7.5c0,1.2-0.1,2.5,0,3.7c0,0,0,0,0,0.1
					c0,0.5,0.4,0.9,0.9,0.9c0.7,0,1.4,0,2.1,0c1.2,0,1.2-1.9,0-1.9c-0.7,0-1.4,0-2.1,0c0.3,0.3,0.6,0.6,0.9,0.9c0-1,0-2,0-3
					c0-2.4,0-4.8,0-7.2c0-2.9,0-5.8,0-8.8c0-2.5,0-5,0-7.5c0-0.8,0-1.7,0-2.5c0-0.4,0-0.8,0-1.2c0,0,0,0,0-0.1
					c-0.3,0.3-0.6,0.6-0.9,0.9c2.3,0,4.6,0,6.9,0c3.7,0,7.3,0,11,0c0.8,0,1.7,0,2.5,0c-0.2-0.1-0.4-0.2-0.7-0.3
					c2.2,2.3,4.4,4.5,6.7,6.8c0.3,0.3,0.6,0.7,1,1c-0.1-0.2-0.2-0.4-0.3-0.7c0,1.7,0,3.4,0,5.1C39.4,23.6,41.3,23.6,41.3,22.4
					L41.3,22.4z"/>
			</g>
		</g>
		<g>
			<g>
				<path class="st0" d="M30.8,12.6c0,1.8,0,3.6,0,5.4c0,0.5,0.4,0.9,0.9,0.9c1.8,0,3.5,0,5.3,0c1.2,0,1.2-1.9,0-1.9
					c-1.8,0-3.5,0-5.3,0c0.3,0.3,0.6,0.6,0.9,0.9c0-1.8,0-3.6,0-5.4C32.7,11.4,30.8,11.4,30.8,12.6L30.8,12.6z"/>
			</g>
		</g>
		<g>
			<g>
				<path class="st0" d="M16.6,16.9c3,0,6.1,0,9.1,0c0.4,0,0.9,0,1.3,0c1.2,0,1.2-1.9,0-1.9c-3,0-6.1,0-9.1,0c-0.4,0-0.9,0-1.3,0
					C15.4,15,15.4,16.9,16.6,16.9L16.6,16.9z"/>
			</g>
		</g>
		<g>
			<g>
				<path class="st0" d="M16.6,21.2c3,0,6.1,0,9.1,0c0.4,0,0.9,0,1.3,0c1.2,0,1.2-1.9,0-1.9c-3,0-6.1,0-9.1,0c-0.4,0-0.9,0-1.3,0
					C15.4,19.4,15.4,21.2,16.6,21.2L16.6,21.2z"/>
			</g>
		</g>
		<g>
			<g>
				<path class="st0" d="M16.6,25.5c2.5,0,5.1,0,7.6,0c0.4,0,0.7,0,1.1,0c1.2,0,1.2-1.9,0-1.9c-2.5,0-5.1,0-7.6,0
					c-0.4,0-0.7,0-1.1,0C15.4,23.7,15.4,25.5,16.6,25.5L16.6,25.5z"/>
			</g>
		</g>
		<g>
			<g>
				<path class="st0" d="M16.6,29.9c2.5,0,5.1,0,7.6,0c0.4,0,0.7,0,1.1,0c1.2,0,1.2-1.9,0-1.9c-2.5,0-5.1,0-7.6,0
					c-0.4,0-0.7,0-1.1,0C15.4,28,15.4,29.9,16.6,29.9L16.6,29.9z"/>
			</g>
		</g>
		<g>
			<g>
				<path class="st0" d="M16.6,34c2.5,0,5.1,0,7.6,0c0.4,0,0.7,0,1.1,0c1.2,0,1.2-1.9,0-1.9c-2.5,0-5.1,0-7.6,0c-0.4,0-0.7,0-1.1,0
					C15.4,32.2,15.4,34,16.6,34L16.6,34z"/>
			</g>
		</g>
		<g>
			<g>
				<path class="st0" d="M19,37.6c0,2.1,0,4.1,0,6.2c0,0.3,0.2,0.5,0.5,0.5c1.8,0,3.6,0,5.4,0c0.7,0,0.7-1.1,0-1.1
					c-1.8,0-3.6,0-5.4,0c0.2,0.2,0.4,0.4,0.5,0.5c0-2.1,0-4.1,0-6.2C20,36.9,19,36.9,19,37.6L19,37.6z"/>
			</g>
		</g>
		<g>
			<g>
				<path class="st0" d="M22,40.6c1.2,1.2,2.5,2.5,3.7,3.7c0-0.3,0-0.5,0-0.8c-1.2,1.3-2.4,2.6-3.5,4c-0.5,0.5,0.3,1.3,0.8,0.8
					c1.2-1.3,2.4-2.6,3.5-4c0.2-0.2,0.2-0.5,0-0.8c-1.2-1.2-2.5-2.5-3.7-3.7C22.2,39.4,21.5,40.1,22,40.6L22,40.6z"/>
			</g>
		</g>
		<g>
			<path class="st0" d="M49.9,49.1H30.7c-1,0-1.8-0.8-1.8-1.8v-20c0-1,0.8-1.8,1.8-1.8h19.2c1,0,1.8,0.8,1.8,1.8v20
				C51.7,48.3,50.9,49.1,49.9,49.1z M30.7,26.9c-0.2,0-0.4,0.2-0.4,0.4v20c0,0.2,0.2,0.4,0.4,0.4h19.2c0.2,0,0.4-0.2,0.4-0.4v-20
				c0-0.2-0.2-0.4-0.4-0.4H30.7z"/>
		</g>
		<g>
			<path class="st0" d="M33.6,46.5c-0.6,0-1.1-0.3-1.3-0.8c-0.5-1.2,0.7-2.9,3.1-4.4c0.6-0.4,1.2-0.7,1.9-1c0.6-1.5,1.1-3.3,1.5-4.6
				c-0.9-1.4-1.6-3-1.7-3.8c-0.1-1,0.1-1.9,0.7-2.5c0.4-0.4,1-0.6,1.6-0.5c0.4,0,0.7,0.2,1,0.6c0.4,0.5,0.8,1.6,0.2,5.1
				c0,0.3-0.1,0.6-0.2,0.9c0.5,0.8,1,1.4,1.3,1.8c0.4,0.4,0.8,0.8,1.2,1.2c1.6-0.4,3.6-0.7,4.4-0.4c0.9,0.3,1.6,1.4,1.4,2.3
				c-0.2,0.7-0.9,1.5-2.4,1.3c-1.4-0.2-2.7-0.8-3.7-1.7c-1,0.3-2.6,0.7-4.1,1.4c-0.2,0.6-0.5,1.2-0.7,1.6c-1.3,2.6-2.8,3.3-3.8,3.5
				l0,0C33.8,46.5,33.7,46.5,33.6,46.5z M36.5,42.3c-0.1,0-0.2,0.1-0.2,0.1c-2.1,1.4-2.6,2.3-2.6,2.6c0,0,0,0,0,0l0,0
				C34.7,44.9,35.7,43.9,36.5,42.3z M44.5,39.5c0.6,0.3,1.3,0.6,2,0.7c0.4,0,0.8,0,0.8-0.2c0-0.2-0.1-0.6-0.4-0.7
				C46.6,39.3,45.8,39.3,44.5,39.5z M39.8,37.2c-0.2,0.7-0.5,1.5-0.7,2.3c0.8-0.3,1.5-0.5,2.2-0.7c-0.2-0.2-0.4-0.4-0.6-0.6
				C40.4,38,40.1,37.6,39.8,37.2z M39.1,30.3c-0.2,0-0.3,0.1-0.3,0.1c-0.2,0.2-0.4,0.8-0.3,1.3c0,0.3,0.3,1,0.7,1.8
				C39.6,30.9,39.3,30.3,39.1,30.3C39.2,30.3,39.2,30.3,39.1,30.3z"/>
		</g>
	</g>
</g>
</svg>
