<?xml version="1.0" encoding="utf-8"?>
<!-- Generator: Adobe Illustrator 21.0.0, SVG Export Plug-In . SVG Version: 6.00 Build 0)  -->
<svg version="1.1" id="Capa_1" xmlns="http://www.w3.org/2000/svg" xmlns:xlink="http://www.w3.org/1999/xlink" x="0px" y="0px"
	 viewBox="0 0 30 30" style="enable-background:new 0 0 30 30;" xml:space="preserve">
<style type="text/css">
	.st0{fill:#424242;}
	.st1{fill:#0A858D;}
</style>
<g>
	<g>
		<path class="st1" d="M23.5,7.4l-4-4c-0.4-0.4-1-0.7-1.6-0.7H8.1c-1.3,0-2.3,1-2.3,2.3v19.9c0,1.3,1,2.3,2.3,2.3h13.8
			c1.3,0,2.3-1,2.3-2.3V9C24.2,8.4,23.9,7.8,23.5,7.4z M21.7,8.8h-3.6V5.2L21.7,8.8z M8.1,24.9V5h7.6v5c0,0.6,0.5,1.2,1.1,1.2h5
			v13.8H8.1z M20.1,17.1c-0.6-0.6-2.2-0.4-3.1-0.3c-0.8-0.5-1.4-1.2-1.8-2.2c0.2-0.8,0.5-1.9,0.3-2.7c-0.2-1.3-1.8-1.1-2-0.3
			c-0.2,0.8,0,1.8,0.3,3.2c-0.5,1.1-1.2,2.7-1.7,3.6c-1,0.5-2.2,1.3-2.4,2.2c-0.2,0.8,1.2,2.6,3.6-1.5c1.1-0.4,2.2-0.8,3.3-1
			c0.9,0.5,2,0.8,2.7,0.8C20.5,19,20.6,17.6,20.1,17.1z M10.6,20.9c0.2-0.7,1.2-1.4,1.5-1.7C11.2,20.6,10.6,20.9,10.6,20.9z
			 M14.5,11.7c0.4,0,0.3,1.5,0.1,2C14.4,13,14.4,11.7,14.5,11.7z M13.3,18.3c0.5-0.8,0.9-1.8,1.2-2.6c0.4,0.7,0.9,1.3,1.4,1.7
			C15,17.6,14.1,18,13.3,18.3z M19.6,18c0,0-0.2,0.3-1.8-0.4C19.5,17.5,19.8,17.9,19.6,18z"/>
	</g>
	<g>
		<path class="st1" d="M15.4,21c0,0.3-0.1,0.6-0.3,0.7c-0.2,0.2-0.5,0.3-0.8,0.3H14v1h-0.6v-2.9h0.9c0.4,0,0.6,0.1,0.8,0.2
			C15.3,20.5,15.4,20.7,15.4,21z M14,21.5h0.2c0.2,0,0.3,0,0.4-0.1c0.1-0.1,0.1-0.2,0.1-0.3c0-0.1,0-0.3-0.1-0.3
			c-0.1-0.1-0.2-0.1-0.4-0.1H14V21.5z"/>
		<path class="st1" d="M18.4,21.6c0,0.5-0.1,0.9-0.4,1.1c-0.3,0.3-0.7,0.4-1.2,0.4H16v-2.9h0.9c0.5,0,0.9,0.1,1.1,0.4
			S18.4,21.1,18.4,21.6z M17.8,21.6c0-0.6-0.3-0.9-0.8-0.9h-0.3v1.9h0.3C17.5,22.5,17.8,22.2,17.8,21.6z"/>
		<path class="st1" d="M19.6,23.1H19v-2.9h1.7v0.5h-1.1v0.8h1v0.5h-1V23.1z"/>
	</g>
</g>
</svg>
