<?xml version="1.0" encoding="utf-8"?>
<!-- Generator: Adobe Illustrator 21.0.0, SVG Export Plug-In . SVG Version: 6.00 Build 0)  -->
<svg version="1.1" id="Capa_1" xmlns="http://www.w3.org/2000/svg" xmlns:xlink="http://www.w3.org/1999/xlink" x="0px" y="0px"
	 viewBox="0 0 63 57.7" style="enable-background:new 0 0 63 57.7;" xml:space="preserve">
<style type="text/css">
	.st0{fill:#777777;}
</style>
<g>
	<g>
		<g>
			<g>
				<path class="st0" d="M41.3,22.4c0-1.3,0-2.7,0-4c0-0.6,0.1-1.3-0.3-1.8c-0.2-0.2-0.4-0.4-0.6-0.6c-2.1-2.2-4.3-4.4-6.4-6.6
					c-0.2-0.2-0.4-0.4-0.6-0.6c-0.3-0.3-0.6-0.3-1-0.3c-1,0-1.9,0-2.9,0c-3.4,0-6.7,0-10.1,0c-2.3,0-4.6-0.1-6.9,0h-0.1
					c-0.5,0-0.9,0.4-0.9,0.9c0,1,0,2,0,3c0,2.4,0,4.8,0,7.2c0,2.9,0,5.8,0,8.8c0,2.5,0,5,0,7.5c0,1.2-0.1,2.5,0,3.7c0,0,0,0,0,0.1
					c0,0.5,0.4,0.9,0.9,0.9c0.7,0,1.4,0,2.1,0c1.2,0,1.2-1.9,0-1.9c-0.7,0-1.4,0-2.1,0c0.3,0.3,0.6,0.6,0.9,0.9c0-1,0-2,0-3
					c0-2.4,0-4.8,0-7.2c0-2.9,0-5.8,0-8.8c0-2.5,0-5,0-7.5c0-0.8,0-1.7,0-2.5c0-0.4,0-0.8,0-1.2c0,0,0,0,0-0.1
					c-0.3,0.3-0.6,0.6-0.9,0.9c2.3,0,4.6,0,6.9,0c3.7,0,7.3,0,11,0c0.8,0,1.7,0,2.5,0c-0.2-0.1-0.4-0.2-0.7-0.3
					c2.2,2.3,4.4,4.5,6.7,6.8c0.3,0.3,0.6,0.7,1,1c-0.1-0.2-0.2-0.4-0.3-0.7c0,1.7,0,3.4,0,5.1C39.4,23.6,41.3,23.6,41.3,22.4
					L41.3,22.4z"/>
			</g>
		</g>
		<g>
			<g>
				<path class="st0" d="M19,37.6c0,2.1,0,4.1,0,6.2c0,0.3,0.2,0.5,0.5,0.5c1.8,0,3.6,0,5.4,0c0.7,0,0.7-1.1,0-1.1
					c-1.8,0-3.6,0-5.4,0c0.2,0.2,0.4,0.4,0.5,0.5c0-2.1,0-4.1,0-6.2C20,36.9,19,36.9,19,37.6L19,37.6z"/>
			</g>
		</g>
		<rect x="15.8" y="12.2" class="st0" width="12.4" height="1.5"/>
		<rect x="15.7" y="30.8" class="st0" width="7.3" height="1.5"/>
		<rect x="24.7" y="30.8" class="st0" width="3.2" height="1.5"/>
		<rect x="15.7" y="27.8" class="st0" width="7.3" height="1.5"/>
		<rect x="24.7" y="27.8" class="st0" width="3.2" height="1.5"/>
		<rect x="15.7" y="24.8" class="st0" width="7.3" height="1.5"/>
		<rect x="24.7" y="24.8" class="st0" width="3.2" height="1.5"/>
		<rect x="15.7" y="21.8" class="st0" width="7.3" height="1.5"/>
		<rect x="24.7" y="21.8" class="st0" width="7.8" height="1.5"/>
		<rect x="15.7" y="18.8" class="st0" width="7.3" height="1.5"/>
		<rect x="24.7" y="18.8" class="st0" width="7.8" height="1.5"/>
		<rect x="15.7" y="15.8" class="st0" width="7.3" height="1.5"/>
		<rect x="24.7" y="15.8" class="st0" width="7.8" height="1.5"/>
		<g>
			<g>
				<path class="st0" d="M22,40.6c1.2,1.2,2.5,2.5,3.7,3.7c0-0.3,0-0.5,0-0.8c-1.2,1.3-2.4,2.6-3.5,4c-0.5,0.5,0.3,1.3,0.8,0.8
					c1.2-1.3,2.4-2.6,3.5-4c0.2-0.2,0.2-0.5,0-0.8c-1.2-1.2-2.5-2.5-3.7-3.7C22.2,39.4,21.5,40.1,22,40.6L22,40.6z"/>
			</g>
		</g>
		<g>
			<path class="st0" d="M49.9,49.1H30.7c-1,0-1.8-0.8-1.8-1.8v-20c0-1,0.8-1.8,1.8-1.8h19.2c1,0,1.8,0.8,1.8,1.8v20
				C51.7,48.3,50.9,49.1,49.9,49.1z M30.7,26.9c-0.2,0-0.4,0.2-0.4,0.4v20c0,0.2,0.2,0.4,0.4,0.4h19.2c0.2,0,0.4-0.2,0.4-0.4v-20
				c0-0.2-0.2-0.4-0.4-0.4H30.7z"/>
		</g>
	</g>
</g>
<path class="st0" d="M45.6,31.4h-2.9l-1.9,3.5c-0.2,0.5-0.3,0.8-0.4,1l0,0c-0.1-0.4-0.2-0.7-0.4-1l-1.7-3.5h-3.2l3.4,5.9l-3.7,5.9
	H38l2-3.8c0.1-0.4,0.2-0.6,0.3-0.8l0,0c0.1,0.4,0.2,0.6,0.2,0.8l2,3.8h3.1L42,37.3L45.6,31.4z"/>
</svg>
