<?xml version="1.0" encoding="utf-8"?>
<!-- Generator: Adobe Illustrator 21.0.0, SVG Export Plug-In . SVG Version: 6.00 Build 0)  -->
<svg version="1.1" id="Capa_1" xmlns="http://www.w3.org/2000/svg" xmlns:xlink="http://www.w3.org/1999/xlink" x="0px" y="0px"
	 viewBox="0 0 63 57.7" style="enable-background:new 0 0 63 57.7;" xml:space="preserve">
<style type="text/css">
	.st0{fill:#777777;}
</style>
<g>
	<g>
		<g>
			<rect x="14" y="18.4" class="st0" width="10.9" height="1.4"/>
			<path class="st0" d="M25.3,20.2H13.6V18h11.7V20.2z M14.4,19.4h10.1v-0.6H14.4V19.4z"/>
		</g>
		<g>
			<rect x="14" y="21.6" class="st0" width="7.8" height="1.4"/>
			<path class="st0" d="M22.2,23.4h-8.6v-2.2h8.6V23.4z M14.4,22.6h7V22h-7V22.6z"/>
		</g>
		<g>
			<rect x="14" y="29.5" class="st0" width="7.8" height="1.4"/>
			<path class="st0" d="M22.2,31.3h-8.6v-2.2h8.6V31.3z M14.4,30.5h7v-0.6h-7V30.5z"/>
		</g>
		<g>
			<rect x="14" y="26.3" class="st0" width="10.9" height="1.4"/>
			<path class="st0" d="M25.3,28.1H13.6v-2.2h11.7V28.1z M14.4,27.3h10.1v-0.6H14.4V27.3z"/>
		</g>
		<g>
			<rect x="14" y="37.4" class="st0" width="7.8" height="1.4"/>
			<path class="st0" d="M22.2,39.1h-8.6V37h8.6V39.1z M14.4,38.3h7v-0.6h-7V38.3z"/>
		</g>
		<g>
			<rect x="14" y="34.2" class="st0" width="10.9" height="1.4"/>
			<path class="st0" d="M25.3,35.9H13.6v-2.2h11.7V35.9z M14.4,35.1h10.1v-0.6H14.4V35.1z"/>
		</g>
		<g>
			<circle class="st0" cx="35.5" cy="28.5" r="0.1"/>
			<path class="st0" d="M35.5,28.9c-0.3,0-0.5-0.2-0.5-0.5c0-0.3,0.2-0.5,0.5-0.5c0.3,0,0.5,0.2,0.5,0.5
				C36,28.7,35.8,28.9,35.5,28.9z M35.5,28.1c-0.2,0-0.3,0.1-0.3,0.3c0,0.2,0.1,0.3,0.3,0.3c0.2,0,0.3-0.1,0.3-0.3
				C35.8,28.3,35.7,28.1,35.5,28.1z"/>
		</g>
		<g>
			<path class="st0" d="M42.7,28.6c0.4-0.3,0.7-0.6,1.1-0.9c-4-5-11.5-5-15.5,0c0.4,0.3,0.7,0.6,1.1,0.9c1.1-1.4,2.5-2.3,4.1-2.8
				c-0.7,0.7-1.2,1.7-1.2,2.8c0,2.1,1.7,3.9,3.9,3.9s3.9-1.7,3.9-3.9c0-1-0.4-2-1.1-2.7C40.4,26.5,41.7,27.4,42.7,28.6z M36.2,31.5
				c-1.6,0-2.9-1.3-2.9-2.9c0-1.6,1.3-2.9,2.9-2.9s2.9,1.3,2.9,2.9C39.1,30.2,37.8,31.5,36.2,31.5z"/>
			<path class="st0" d="M36.2,32.9c-2.4,0-4.3-1.9-4.3-4.3c0-0.7,0.2-1.3,0.4-1.9c-1,0.5-1.9,1.2-2.6,2.1l-0.2,0.3l-1.7-1.4l0.2-0.3
				c2-2.5,4.9-3.9,8.1-3.9c3.2,0,6.1,1.4,8.1,3.9l0.2,0.3l-1.7,1.4l-0.2-0.3c-0.6-0.8-1.4-1.5-2.3-2c0.2,0.5,0.4,1.1,0.4,1.7
				C40.5,31,38.6,32.9,36.2,32.9z M34.9,25l-1.2,1.2c-0.7,0.7-1.1,1.6-1.1,2.5c0,1.9,1.6,3.5,3.5,3.5c1.9,0,3.5-1.6,3.5-3.5
				c0-0.9-0.3-1.7-1-2.4L37.6,25l1.6,0.6c1.4,0.5,2.6,1.4,3.6,2.5l0.5-0.4c-1.8-2.1-4.4-3.3-7.2-3.3c-2.8,0-5.4,1.2-7.2,3.3l0.5,0.4
				c1.1-1.2,2.4-2.1,4-2.6L34.9,25z M36.2,31.9c-1.8,0-3.3-1.5-3.3-3.3c0-1.8,1.5-3.3,3.3-3.3c1.8,0,3.3,1.5,3.3,3.3
				C39.5,30.4,38,31.9,36.2,31.9z M36.2,26.1c-1.4,0-2.5,1.1-2.5,2.5c0,1.4,1.1,2.5,2.5,2.5c1.4,0,2.5-1.1,2.5-2.5
				C38.7,27.2,37.6,26.1,36.2,26.1z"/>
		</g>
		<g>
			<path class="st0" d="M57,44.6l-8.4-8l-0.9,0.9l0,0L47,38.2l-3-3c1.5-1.8,2.4-4.1,2.4-6.5c0-5.3-4-9.6-9.1-10.2V7.8H14.8L8,14.2
				L7.9,49.5h29.4v-8.2h-1.2v7H9.1l0.1-32.8h6.1V9.1h-0.1L15.3,9h20.8v9.4C30.5,18.5,26,23,26,28.6c0,5.6,4.6,10.2,10.2,10.2
				c2.6,0,4.9-0.9,6.7-2.5l3,3L45.3,40l0,0l-0.9,0.9l8.2,8.3l0,0c0.4,0.4,1.1,0.8,2,0.8c0.5,0,1.1-0.2,1.7-0.6l0,0l1-1.1l0,0
				C58.4,46.8,57.6,45.2,57,44.6z M14.1,14.2H9.8l4.3-4V14.2z M27,28.6c0-5.1,4.1-9.2,9.2-9.2s9.2,4.1,9.2,9.2s-4.1,9.2-9.2,9.2
				S27,33.7,27,28.6z M55.5,48.4c-1,0.7-1.9,0-2-0.1l-7.3-7.4l0.8-0.8l1.8-1.8l7.5,7.2c0.1,0.1,0.8,0.9,0.3,1.8L55.5,48.4z"/>
			<path class="st0" d="M54.6,50.4c-1,0-1.8-0.5-2.3-0.9l-8.5-8.6l1.5-1.5l-2.5-2.5c-1.9,1.5-4.2,2.4-6.7,2.4
				c-5.8,0-10.6-4.8-10.6-10.6c0-5.6,4.5-10.3,10.1-10.6V9.4h-20v6.4H9.6l-0.1,32h26.1v-7h2v9H7.5l0-0.4L7.6,14l7-6.6h23.1v10.7
				c5.2,0.7,9.1,5.2,9.1,10.5c0,2.4-0.8,4.7-2.2,6.5l2.5,2.5l0.6-0.7l0,0l0.9-0.9l8.7,8.3c0.7,0.7,1.6,2.5,0.3,4.2l-0.2,0.3l-0.1,0
				l-0.8,0.9C55.9,50.1,55.3,50.4,54.6,50.4L54.6,50.4z M44.9,40.9l7.9,8c0.3,0.3,1,0.7,1.7,0.7c0.5,0,1-0.2,1.4-0.5l1.1-1.2
				c0.7-1.2,0.1-2.4-0.4-2.9l-8.1-7.8L47.8,38l0,0l-0.7,0.7l-3.6-3.6l0.2-0.3c1.5-1.8,2.3-4,2.3-6.3c0-5-3.8-9.2-8.8-9.8l-0.4,0V8.2
				h-22l-6.6,6.2L8.3,49.1h28.6v-7.4h-0.4v7H8.7L8.8,15h6.1V9.5h-0.4v5.1H8.8l5.7-5.3v0.1L15,8.7l0.2-0.1h21.2v10.2l-0.4,0
				c-5.3,0.1-9.7,4.5-9.7,9.8c0,5.4,4.4,9.8,9.8,9.8c2.4,0,4.7-0.9,6.4-2.4l0.3-0.2l3.6,3.6L44.9,40.9z M10.8,13.8h2.9v-2.7
				L10.8,13.8z M54.5,49.1c-0.6,0-1.1-0.3-1.4-0.6l-7.6-7.7l3.1-3.1l7.8,7.5c0.1,0.1,1,1.1,0.4,2.3l-1.1,1.2
				C55.3,49,54.9,49.1,54.5,49.1z M46.7,40.9l7,7.1c0.1,0.1,0.8,0.6,1.5,0.1l1-1.1c0.3-0.6-0.2-1.2-0.3-1.3l-7.2-6.9L46.7,40.9z
				 M36.2,38.2c-5.3,0-9.6-4.3-9.6-9.6s4.3-9.6,9.6-9.6s9.6,4.3,9.6,9.6S41.5,38.2,36.2,38.2z M36.2,19.8c-4.8,0-8.8,3.9-8.8,8.8
				c0,4.8,3.9,8.8,8.8,8.8c4.8,0,8.8-3.9,8.8-8.8C45,23.8,41,19.8,36.2,19.8z"/>
		</g>
	</g>
</g>
</svg>
