<?xml version="1.0" encoding="utf-8"?>
<!-- Generator: Adobe Illustrator 21.0.0, SVG Export Plug-In . SVG Version: 6.00 Build 0)  -->
<svg version="1.1" id="Capa_1" xmlns="http://www.w3.org/2000/svg" xmlns:xlink="http://www.w3.org/1999/xlink" x="0px" y="0px"
	 viewBox="0 0 63 57.7" style="enable-background:new 0 0 63 57.7;" xml:space="preserve">
<style type="text/css">
	.st0{fill:#777777;}
</style>
<g>
	<g>
		<path class="st0" d="M27.2,46.7l0.1-13.2L16.2,23.4v-8.7l30.5,0.2v7.7l-11.3,11l0.1,9.1L27.2,46.7z M17.9,22.7L29,32.8L28.8,44
			l5.1-2.5l-0.1-8.7l11.3-11v-5.4l-27.2-0.2V22.7z"/>
	</g>
	<g>
		<path class="st0" d="M24.3,13.1c-1.6,0-2.9-1.3-2.9-2.9s1.3-2.9,2.9-2.9s2.9,1.3,2.9,2.9S25.9,13.1,24.3,13.1z M24.3,8.1
			c-1.1,0-2.1,0.9-2.1,2.1s0.9,2.1,2.1,2.1s2.1-0.9,2.1-2.1S25.5,8.1,24.3,8.1z"/>
	</g>
	<g>
		<path class="st0" d="M34.3,13.2c-1.3,0-2.4-1.1-2.4-2.4s1.1-2.4,2.4-2.4c1.3,0,2.4,1.1,2.4,2.4S35.6,13.2,34.3,13.2z M34.3,9
			c-1,0-1.7,0.8-1.7,1.7s0.8,1.7,1.7,1.7c1,0,1.7-0.8,1.7-1.7S35.3,9,34.3,9z"/>
	</g>
	<g>
		<path class="st0" d="M29.1,6.7c-1.1,0-2-0.9-2-2s0.9-2,2-2c1.1,0,2,0.9,2,2S30.3,6.7,29.1,6.7z M29.1,3.2c-0.8,0-1.4,0.6-1.4,1.4
			s0.6,1.4,1.4,1.4s1.4-0.6,1.4-1.4S29.9,3.2,29.1,3.2z"/>
	</g>
	<g>
		<path class="st0" d="M38.6,7.9c-1.1,0-2-0.9-2-2s0.9-2,2-2c1.1,0,2,0.9,2,2S39.7,7.9,38.6,7.9z M38.6,4.4c-0.8,0-1.4,0.6-1.4,1.4
			s0.6,1.4,1.4,1.4c0.8,0,1.4-0.6,1.4-1.4S39.4,4.4,38.6,4.4z"/>
	</g>
	<g>
		<path class="st0" d="M31.8,49.4c-1.1,0-2-0.9-2-2s0.9-2,2-2s2,0.9,2,2S32.9,49.4,31.8,49.4z M31.8,46c-0.8,0-1.4,0.6-1.4,1.4
			s0.6,1.4,1.4,1.4c0.8,0,1.4-0.6,1.4-1.4S32.6,46,31.8,46z"/>
	</g>
	<g>
		<path class="st0" d="M31.8,55.3c-1.1,0-2-0.9-2-2s0.9-2,2-2s2,0.9,2,2S32.9,55.3,31.8,55.3z M31.8,51.9c-0.8,0-1.4,0.6-1.4,1.4
			s0.6,1.4,1.4,1.4c0.8,0,1.4-0.6,1.4-1.4S32.6,51.9,31.8,51.9z"/>
	</g>
</g>
</svg>
