<?xml version="1.0" encoding="utf-8"?>
<!-- Generator: Adobe Illustrator 21.0.0, SVG Export Plug-In . SVG Version: 6.00 Build 0)  -->
<svg version="1.1" id="Capa_1" xmlns="http://www.w3.org/2000/svg" xmlns:xlink="http://www.w3.org/1999/xlink" x="0px" y="0px"
	 viewBox="0 0 63 57.7" style="enable-background:new 0 0 63 57.7;" xml:space="preserve">
<style type="text/css">
	.st0{fill:#777777;}
</style>
<g>
	<g>
		<g>
			<g>
				<path class="st0" d="M27.9,47.8c0-0.1,0-0.1-0.1-0.2c0-0.1-0.1-0.1-0.1-0.2c0-0.1-0.1-0.1-0.1-0.1c0,0-0.1-0.1-0.1-0.1
					c0,0-0.1-0.1-0.2-0.1c-0.1,0-0.1,0-0.2-0.1c-0.3-0.1-0.6,0-0.8,0.2c0,0-0.1,0.1-0.1,0.1c0,0-0.1,0.1-0.1,0.2
					c0,0.1,0,0.1-0.1,0.2s0,0.1,0,0.2c0,0.1,0,0.1,0,0.2c0,0.1,0,0.1,0.1,0.2c0,0.1,0.1,0.1,0.1,0.2c0,0.1,0.1,0.1,0.1,0.1
					s0.1,0.1,0.1,0.1c0,0,0.1,0.1,0.2,0.1c0.1,0,0.1,0,0.2,0.1c0.1,0,0.1,0,0.2,0c0.1,0,0.1,0,0.2,0c0.1,0,0.1,0,0.2-0.1
					c0.1,0,0.1-0.1,0.2-0.1c0.1,0,0.1-0.1,0.1-0.1s0.1-0.1,0.1-0.1c0,0,0.1-0.1,0.1-0.2c0-0.1,0-0.1,0.1-0.2c0-0.1,0-0.1,0-0.2
					C27.9,48,27.9,47.9,27.9,47.8z"/>
			</g>
		</g>
		<g>
			<g>
				<g>
					<path class="st0" d="M45.2,45.2c-0.6-2.8-3.1-4.9-6-4.9h-2.3l-1.1-1.9c0.3-0.3,0.5-0.7,0.7-1c0.5-1,0.8-2.2,0.8-3.4v-3.3
						c0-3.2-2.6-5.7-5.7-5.7s-5.7,2.6-5.7,5.7V34c0,1.2,0.3,2.3,0.8,3.4c0.2,0.4,0.4,0.7,0.7,1l-1.1,1.9h-2.3c-2.9,0-5.4,2.1-6,4.9
						c0,0.1,0,0.1,0,0.2v6.3c0,0.5,0.4,0.9,0.9,0.9h25.5c0.5,0,0.9-0.4,0.9-0.9v-6.3C45.2,45.3,45.2,45.3,45.2,45.2z M19.7,50.8
						v-1.8h4.5c0.5,0,0.9-0.4,0.9-0.9c0-0.5-0.4-0.9-0.9-0.9h-4.5v-1.6c0.4-1.9,2.2-3.3,4.2-3.3h2.8c0.3,0,0.6-0.2,0.8-0.4l1.8-3
						c0.2-0.4,0.1-1-0.3-1.2c-0.3-0.2-0.6-0.5-0.8-0.9c-0.4-0.8-0.6-1.7-0.6-2.5v-3.3c0-2.2,1.8-3.9,3.9-3.9s3.9,1.8,3.9,3.9V34
						c0,0.9-0.2,1.8-0.6,2.5c-0.2,0.3-0.4,0.6-0.7,0.9L32.8,38c-0.5,0.2-0.7,0.7-0.5,1.2c0.1,0.4,0.5,0.6,0.8,0.6
						c0.1,0,0.2,0,0.3-0.1l0.7-0.3l1.4,2.3c0.2,0.3,0.5,0.4,0.8,0.4h2.8c2,0,3.7,1.4,4.2,3.3v5.3L19.7,50.8L19.7,50.8z"/>
				</g>
			</g>
			<g>
				<g>
					<path class="st0" d="M51.9,5.1H11.2c-1.9,0-3.4,1.5-3.4,3.4v8.8c0,1.9,1.5,3.4,3.4,3.4h1.9L25.7,26c0.1,0,0.2,0.1,0.4,0.1
						c0.2,0,0.4-0.1,0.5-0.2c0.3-0.2,0.4-0.5,0.4-0.8v-4.6h24.9c1.9,0,3.4-1.5,3.4-3.4V8.5C55.3,6.6,53.8,5.1,51.9,5.1z M53.5,17.2
						c0,0.9-0.7,1.6-1.6,1.6H22.4c-0.5,0-0.9,0.4-0.9,0.9c0,0.5,0.4,0.9,0.9,0.9h2.7v3.2l-11.5-4.9c-0.1,0-0.2-0.1-0.4-0.1h-2.1
						c-0.9,0-1.6-0.7-1.6-1.6V8.5c0-0.9,0.7-1.6,1.6-1.6h40.7c0.9,0,1.6,0.7,1.6,1.6V17.2z"/>
				</g>
			</g>
		</g>
		<g>
			<g>
				<path class="st0" d="M23.3,10.1h-11c-0.5,0-0.9,0.4-0.9,0.9s0.4,0.9,0.9,0.9h11c0.5,0,0.9-0.4,0.9-0.9
					C24.2,10.5,23.8,10.1,23.3,10.1z"/>
			</g>
		</g>
		<g>
			<g>
				<path class="st0" d="M50.8,13.8H12.3c-0.5,0-0.9,0.4-0.9,0.9c0,0.5,0.4,0.9,0.9,0.9h38.4c0.5,0,0.9-0.4,0.9-0.9
					C51.7,14.2,51.3,13.8,50.8,13.8z"/>
			</g>
		</g>
	</g>
</g>
</svg>
