<?xml version="1.0" encoding="utf-8"?>
<!-- Generator: Adobe Illustrator 21.0.0, SVG Export Plug-In . SVG Version: 6.00 Build 0)  -->
<svg version="1.1" id="Capa_1" xmlns="http://www.w3.org/2000/svg" xmlns:xlink="http://www.w3.org/1999/xlink" x="0px" y="0px"
	 viewBox="0 0 63 57.7" style="enable-background:new 0 0 63 57.7;" xml:space="preserve">
<style type="text/css">
	.st0{fill:#777777;}
</style>
<g>
	<g>
		<g>
			<g>
				<path class="st0" d="M50.5,46.9H12.5c-1.1,0-1.9-0.4-2.3-1.1c-0.4-0.7-0.3-1.6,0.2-2.5l18.8-31.1c0.5-0.9,1.3-1.4,2.2-1.4h0
					c0.8,0,1.6,0.5,2.2,1.4l18.9,31.1c0.6,0.9,0.6,1.8,0.2,2.5C52.4,46.5,51.5,46.9,50.5,46.9z M31.5,12L31.5,12
					c-0.4,0-0.8,0.3-1.1,0.8L11.5,43.9c-0.3,0.5-0.4,1-0.2,1.3s0.6,0.5,1.2,0.5h37.9c0.6,0,1-0.2,1.2-0.5c0.2-0.3,0.1-0.8-0.2-1.3
					L32.6,12.8C32.3,12.3,31.9,12,31.5,12z"/>
				<path class="st0" d="M50.5,47.3H12.5c-1.2,0-2.2-0.5-2.6-1.3s-0.4-1.9,0.2-2.9L29,12c0.6-1,1.5-1.6,2.5-1.6c1,0,1.9,0.6,2.5,1.6
					L52.9,43c0.6,1.1,0.7,2.1,0.2,2.9C52.6,46.8,51.7,47.3,50.5,47.3z M31.5,11.1c-0.7,0-1.4,0.4-1.8,1.2L10.8,43.5
					c-0.5,0.8-0.6,1.6-0.2,2.1c0.3,0.6,1,0.9,2,0.9h37.9c0.9,0,1.6-0.3,2-0.9c0.3-0.6,0.2-1.4-0.2-2.1L33.3,12.4
					C32.8,11.6,32.2,11.1,31.5,11.1z M50.5,46H12.5c-0.8,0-1.3-0.2-1.5-0.7c-0.2-0.4-0.2-1,0.2-1.7L30,12.6c0.4-0.6,0.9-1,1.4-1h0
					c0.5,0,1,0.4,1.4,1l18.9,31.1c0.4,0.6,0.5,1.2,0.2,1.7C51.8,45.8,51.2,46,50.5,46z M31.5,12.4c-0.2,0-0.5,0.2-0.8,0.6L11.9,44.1
					c-0.3,0.4-0.3,0.7-0.2,0.9c0.1,0.1,0.3,0.3,0.9,0.3h37.9c0.5,0,0.8-0.1,0.9-0.3c0.1-0.1,0.1-0.4-0.2-0.9L32.2,13
					C32,12.6,31.7,12.4,31.5,12.4L31.5,12.4z"/>
			</g>
		</g>
		<g>
			<g>
				<path class="st0" d="M31.5,42.7c-1.8,0-3.2-1.4-3.2-3.2c0-1.8,1.4-3.2,3.2-3.2s3.2,1.4,3.2,3.2C34.7,41.3,33.2,42.7,31.5,42.7z
					 M31.5,37.6c-1.1,0-1.9,0.9-1.9,1.9c0,1.1,0.9,1.9,1.9,1.9c1.1,0,1.9-0.9,1.9-1.9C33.4,38.4,32.5,37.6,31.5,37.6z"/>
				<path class="st0" d="M31.5,43.1c-2,0-3.6-1.6-3.6-3.6c0-2,1.6-3.6,3.6-3.6s3.6,1.6,3.6,3.6C35.1,41.5,33.5,43.1,31.5,43.1z
					 M31.5,36.7c-1.5,0-2.8,1.3-2.8,2.8c0,1.5,1.3,2.8,2.8,2.8s2.8-1.3,2.8-2.8C34.3,38,33,36.7,31.5,36.7z M31.5,41.8
					c-1.3,0-2.3-1-2.3-2.3c0-1.3,1-2.3,2.3-2.3c1.3,0,2.3,1,2.3,2.3C33.8,40.8,32.8,41.8,31.5,41.8z M31.5,38
					c-0.8,0-1.5,0.7-1.5,1.5c0,0.8,0.7,1.5,1.5,1.5s1.5-0.7,1.5-1.5C33,38.7,32.3,38,31.5,38z"/>
			</g>
		</g>
		<g>
			<g>
				<path class="st0" d="M31.5,35.3C31.5,35.3,31.5,35.3,31.5,35.3c-0.1,0-0.2,0-0.3,0c-1-0.2-1.1-1-1.2-2c0-0.3-0.1-0.6-0.1-0.9
					c-0.2-1.3-0.7-2.9-1.1-4.1c-0.1-0.3-0.2-0.6-0.3-0.8c-0.4-1.4-0.8-3,0-4.9c0.8-2,2.7-2.1,3.6-1.9l0,0c1,0.2,1.8,0.9,2.3,1.9
					c0.8,1.9,0.4,3.5,0,4.9c-0.1,0.3-0.2,0.5-0.3,0.8c-0.4,1.3-0.9,2.8-1.1,4.1c0,0.3-0.1,0.6-0.1,0.9c-0.1,0.9-0.2,1.8-1.2,2
					C31.6,35.3,31.6,35.3,31.5,35.3z M31.4,34C31.4,34,31.4,34,31.4,34L31.4,34L31.4,34C31.5,34,31.5,34,31.4,34
					c0.1-0.1,0.2-0.5,0.2-0.8c0-0.3,0.1-0.6,0.1-0.9c0.2-1.4,0.7-3,1.2-4.4c0.1-0.3,0.2-0.5,0.3-0.8c0.5-1.5,0.6-2.6,0.1-4l0,0
					c-0.3-0.7-0.7-1.1-1.3-1.2l0,0c-0.2,0-1.6-0.2-2.2,1.2c-0.6,1.3-0.4,2.5,0.1,4c0.1,0.3,0.2,0.5,0.3,0.8c0.4,1.3,1,3,1.2,4.4
					c0,0.4,0.1,0.7,0.1,0.9C31.3,33.5,31.4,33.9,31.4,34z"/>
				<path class="st0" d="M31.4,35.5c-0.1,0-0.2,0-0.3,0c-1.2-0.2-1.2-1.2-1.3-2.1c0-0.3-0.1-0.6-0.1-0.9c-0.2-1.3-0.7-2.8-1.1-4.1
					c-0.1-0.3-0.2-0.6-0.3-0.8c-0.4-1.4-0.9-3,0-5c0.9-2.1,2.8-2.3,3.8-2c1.1,0.2,1.9,0.9,2.4,2c0.8,1.9,0.4,3.6,0,5
					c-0.1,0.3-0.2,0.5-0.3,0.8c-0.4,1.3-0.9,2.8-1.1,4.1c0,0.3-0.1,0.6-0.1,0.8l0,0.1c-0.1,0.9-0.2,1.9-1.3,2.1
					C31.7,35.5,31.6,35.5,31.4,35.5L31.4,35.5C31.5,35.5,31.5,35.5,31.4,35.5z M31.5,20.8c-0.9,0-2.2,0.4-2.8,1.9
					c-0.8,1.8-0.4,3.4,0,4.7c0.1,0.3,0.2,0.5,0.3,0.8c0.4,1.3,1,2.9,1.1,4.2c0,0.3,0.1,0.6,0.1,0.9c0.1,1,0.2,1.6,1,1.8
					c0.1,0,0.1,0,0.2,0h0c0.1,0,0.1,0,0.2,0c0.8-0.1,0.9-0.8,1-1.8l0-0.1c0-0.2,0-0.5,0.1-0.8c0.2-1.3,0.7-2.9,1.1-4.2
					c0.1-0.3,0.2-0.6,0.3-0.8c0.4-1.3,0.8-2.9,0-4.7c-0.4-1-1.2-1.6-2.1-1.8C31.9,20.8,31.7,20.8,31.5,20.8z M31.4,34.2l-0.1,0
					l-0.1-0.1c-0.1-0.2-0.1-0.5-0.1-0.9l0-0.1c0-0.2-0.1-0.5-0.1-0.8c-0.2-1.4-0.7-3-1.2-4.3c-0.1-0.3-0.2-0.6-0.3-0.8
					c-0.5-1.5-0.7-2.7-0.1-4.1c0.7-1.6,2.2-1.3,2.4-1.3c0.7,0.1,1.2,0.6,1.5,1.3c0.6,1.4,0.4,2.6-0.1,4.1l-0.3,0.8
					c-0.4,1.3-1,2.9-1.2,4.3c0,0.4-0.1,0.7-0.1,0.9c0,0.5-0.1,0.7-0.1,0.9l0,0.1L31.4,34.2z M31.5,22.1c-0.5,0-1.2,0.2-1.6,1.1
					c-0.5,1.3-0.4,2.4,0.1,3.8c0.1,0.3,0.2,0.5,0.3,0.8c0.4,1.3,1,3,1.2,4.4c0,0.2,0,0.4,0.1,0.6c0-0.2,0-0.4,0.1-0.6
					c0.2-1.4,0.7-3.1,1.2-4.4L33,27c0.5-1.4,0.6-2.5,0.1-3.8c-0.3-0.6-0.7-1-1.2-1.1C31.8,22.1,31.7,22.1,31.5,22.1z"/>
			</g>
		</g>
	</g>
</g>
</svg>
