<?xml version="1.0" encoding="utf-8"?>
<!-- Generator: Adobe Illustrator 21.0.0, SVG Export Plug-In . SVG Version: 6.00 Build 0)  -->
<svg version="1.1" id="Capa_1" xmlns="http://www.w3.org/2000/svg" xmlns:xlink="http://www.w3.org/1999/xlink" x="0px" y="0px"
	 viewBox="0 0 30 30" style="enable-background:new 0 0 30 30;" xml:space="preserve">
<style type="text/css">
	.st0{fill:#5F6368;}
	.st1{fill:#0A858D;}
	.st2{fill:#626262;}
	.st3{fill:#424242;}
</style>
<g>
	<g>
		<g>
			<g>
				<g>
					<g>
						<path class="st1" d="M27.5,26.9H2.5c-0.7,0-1.2-0.3-1.5-0.7c-0.3-0.5-0.2-1.1,0.2-1.7L13.5,4c0.4-0.6,0.9-0.9,1.4-0.9h0
							c0.6,0,1.1,0.3,1.4,0.9l12.4,20.4c0.4,0.6,0.4,1.2,0.2,1.7C28.7,26.6,28.2,26.9,27.5,26.9z M15,3.9L15,3.9
							c-0.3,0-0.5,0.2-0.7,0.5L1.9,24.9c-0.2,0.3-0.3,0.6-0.1,0.8c0.1,0.2,0.4,0.3,0.8,0.3h24.9c0.4,0,0.7-0.1,0.8-0.3
							c0.1-0.2,0.1-0.5-0.1-0.8L15.7,4.5C15.5,4.1,15.2,3.9,15,3.9z"/>
						<path class="st1" d="M27.5,27.5H2.5c-0.9,0-1.6-0.4-2-1c-0.4-0.7-0.3-1.5,0.2-2.3L13.1,3.7C13.5,3,14.2,2.5,15,2.5
							c0.8,0,1.5,0.4,1.9,1.2l12.4,20.4c0.5,0.8,0.5,1.6,0.2,2.3C29.1,27.1,28.4,27.5,27.5,27.5z M2.3,25.4c0.1,0,0.1,0,0.3,0h24.9
							c0.1,0,0.2,0,0.3,0c0-0.1,0-0.1-0.1-0.2L15.2,4.8C15.1,4.6,15,4.5,15,4.5c0,0-0.1,0.1-0.2,0.3L2.4,25.2
							C2.3,25.3,2.3,25.4,2.3,25.4z"/>
					</g>
					<g>
						<path class="st1" d="M27.5,27.1H2.5c-0.8,0-1.4-0.3-1.7-0.9C0.5,25.7,0.5,25,1,24.3L13.3,3.9c0.4-0.7,1-1.1,1.7-1.1
							c0.6,0,1.2,0.4,1.7,1.1L29,24.3c0.4,0.7,0.5,1.4,0.2,1.9C28.9,26.8,28.3,27.1,27.5,27.1z M15,3.4c-0.5,0-0.9,0.3-1.2,0.8
							L1.4,24.6c-0.3,0.5-0.4,1-0.2,1.4c0.2,0.4,0.7,0.6,1.3,0.6h24.9c0.6,0,1.1-0.2,1.3-0.6c0.2-0.4,0.2-0.9-0.2-1.4L16.2,4.2
							C15.9,3.7,15.4,3.4,15,3.4z M27.5,26.3H2.5c-0.5,0-0.9-0.2-1-0.4c-0.2-0.3-0.1-0.7,0.1-1.1L14,4.3c0.3-0.4,0.6-0.7,0.9-0.7h0
							c0.4,0,0.7,0.2,0.9,0.7l12.4,20.4c0.3,0.4,0.3,0.8,0.1,1.1C28.3,26.2,28,26.3,27.5,26.3z M15,4.2c-0.2,0-0.3,0.1-0.5,0.4
							L2.1,25c-0.2,0.3-0.2,0.5-0.1,0.6s0.2,0.2,0.6,0.2h24.9c0.3,0,0.5-0.1,0.6-0.2c0-0.1,0-0.3-0.1-0.6L15.5,4.6
							C15.3,4.4,15.1,4.2,15,4.2L15,4.2z"/>
						<path class="st1" d="M27.5,27.7H2.5c-1,0-1.8-0.4-2.2-1.2c-0.4-0.7-0.4-1.6,0.2-2.5L12.8,3.6c0.5-0.8,1.3-1.3,2.1-1.3
							s1.6,0.5,2.1,1.3L29.5,24c0.5,0.9,0.6,1.8,0.2,2.5C29.3,27.3,28.5,27.7,27.5,27.7z M2.7,25.2h24.7L15,4.9c0,0,0,0,0,0
							c0,0,0,0,0,0L2.7,25.2z"/>
					</g>
				</g>
			</g>
		</g>
	</g>
	<g>
		<g>
			<path class="st1" d="M14.6,24.2c-0.6-0.2-0.9-0.6-1.1-1.2c-0.2-0.9,0.3-1.7,1.1-1.9c1-0.2,1.8,0.5,1.8,1.5
				C16.5,23.8,15.7,24.5,14.6,24.2z"/>
			<path class="st1" d="M15,24.9c-0.2,0-0.4,0-0.6-0.1c-0.8-0.2-1.3-0.8-1.5-1.6c-0.1-0.6,0-1.2,0.3-1.7c0.3-0.5,0.8-0.8,1.3-0.9
				c0.7-0.1,1.3,0,1.8,0.4c0.5,0.4,0.8,1,0.8,1.7c0,0.7-0.3,1.4-0.8,1.8C15.9,24.7,15.5,24.9,15,24.9z M15,21.7c-0.1,0-0.2,0-0.2,0
				c-0.2,0-0.4,0.2-0.5,0.4c-0.2,0.2-0.2,0.5-0.1,0.8c0.1,0.5,0.4,0.7,0.7,0.7l0,0c0.3,0.1,0.6,0,0.8-0.1c0.2-0.2,0.4-0.5,0.4-0.8
				c0-0.3-0.1-0.6-0.3-0.8C15.5,21.8,15.3,21.7,15,21.7z"/>
		</g>
		<g>
			<path class="st1" d="M13.2,10.7c0.3-1.1,1.4-1.8,2.4-1.4c0.7,0.3,1,0.8,1.2,1.5c0.1,0.3,0.1,0.5,0.1,0.8c0,1.4-0.3,2.8-0.7,4.2
				c-0.2,0.8-0.4,1.5-0.6,2.3c-0.1,0.2-0.1,0.4-0.3,0.5c-0.2,0.2-0.5,0.2-0.7,0c-0.1-0.1-0.2-0.3-0.2-0.5c-0.5-1.7-1-3.5-1.2-5.3
				C13.2,12.2,13.1,11.4,13.2,10.7z"/>
			<path class="st1" d="M15,19.3c-0.3,0-0.5-0.1-0.7-0.3c-0.2-0.2-0.3-0.5-0.4-0.7c-0.6-2.1-1-3.8-1.2-5.4l0-0.1
				c-0.1-0.8-0.2-1.5,0-2.3v0c0.2-0.7,0.6-1.3,1.3-1.7c0.6-0.3,1.3-0.3,1.9-0.1c0.8,0.3,1.3,0.9,1.5,1.9c0.1,0.3,0.1,0.6,0.1,0.8
				l0,0.1c0,1.5-0.4,3-0.7,4.4c-0.2,0.7-0.4,1.5-0.6,2.3c-0.1,0.3-0.2,0.5-0.4,0.7C15.5,19.2,15.3,19.3,15,19.3z M15.1,18.2
				L15.1,18.2L15.1,18.2z M13.8,10.8c-0.2,0.6-0.1,1.2,0,1.9l0,0.1c0.2,1.5,0.5,3.1,1.2,5.2c0,0,0,0.1,0,0.1c0,0,0-0.1,0-0.1
				c0.2-0.8,0.4-1.5,0.6-2.3c0.4-1.5,0.6-2.8,0.6-4.1l0-0.1c0-0.2,0-0.4,0-0.6c-0.1-0.6-0.4-0.9-0.8-1.1c-0.3-0.1-0.7-0.1-1,0
				C14.1,10.1,13.9,10.4,13.8,10.8L13.8,10.8z"/>
		</g>
	</g>
</g>
</svg>
