<?xml version="1.0" encoding="utf-8"?>
<!-- Generator: Adobe Illustrator 21.0.0, SVG Export Plug-In . SVG Version: 6.00 Build 0)  -->
<svg version="1.1" id="Capa_1" xmlns="http://www.w3.org/2000/svg" xmlns:xlink="http://www.w3.org/1999/xlink" x="0px" y="0px"
	 viewBox="0 0 30 30" style="enable-background:new 0 0 30 30;" xml:space="preserve">
<style type="text/css">
	.st0{fill:#5F6368;}
	.st1{fill:#0A858D;}
	.st2{fill:#626262;}
	.st3{fill:#424242;}
</style>
<g>
	<path class="st2" d="M24.9,21.6l-2-1.5v-4.4c0-0.2-0.1-0.3-0.2-0.4c-0.1-0.2-0.3-0.3-0.6-0.3h-1c-0.4,0-0.7,0.3-0.7,0.7v5.3
		c0,0.2,0.1,0.4,0.3,0.6l2,1.5l0.7,0.5l0,0c0.1,0.1,0.3,0.1,0.4,0.1c0.2,0,0.4-0.1,0.6-0.3l0.6-0.8c0.1-0.2,0.2-0.3,0.1-0.5
		C25.2,21.9,25.1,21.8,24.9,21.6z"/>
	<g>
		<path class="st2" d="M13.9,25.4c-0.1-0.2-0.2-0.3-0.3-0.5H2.7c-0.2,0-0.3-0.1-0.3-0.3V9.5h17.9v1.7c0.5-0.1,0.9-0.1,1.3-0.1
			c0.3,0,0.7,0,1.1,0.1V7c0-1.3-1.1-2.4-2.4-2.4h-2.4V2c0-0.3-0.3-0.6-0.6-0.6h-2c-0.3,0-0.6,0.3-0.6,0.6v2.6H8.1V2
			c0-0.3-0.3-0.6-0.6-0.6h-2C5.1,1.3,4.9,1.6,4.9,2v2.6H2.4C1.1,4.6,0,5.7,0,7v17.9c0,1.3,1.1,2.4,2.4,2.4h13.2
			C15,26.8,14.4,26.1,13.9,25.4z"/>
		<path class="st2" d="M13.3,20.3c0,1.7,0.5,3.3,1.4,4.6c0.6,1,1.5,1.8,2.5,2.4c1.3,0.8,2.8,1.3,4.5,1.3c4.6,0,8.4-3.8,8.4-8.4
			c0-4.2-3.2-7.7-7.3-8.3c-0.4,0-0.7-0.1-1.1-0.1c-0.5,0-0.9,0-1.3,0.1C16.3,12.7,13.3,16.1,13.3,20.3z M20.3,14.3
			c0.4-0.1,0.9-0.2,1.3-0.2c0.4,0,0.7,0,1.1,0.1c2.9,0.5,5,3,5,6c0,3.2-2.4,5.8-5.6,6.1c-0.2,0-0.4,0-0.6,0c-1.5,0-3-0.6-4-1.5
			c-1.3-1.1-2.1-2.8-2.1-4.6C15.5,17.4,17.6,14.9,20.3,14.3z"/>
	</g>
</g>
</svg>
