<?xml version="1.0" encoding="utf-8"?>
<!-- Generator: Adobe Illustrator 21.0.0, SVG Export Plug-In . SVG Version: 6.00 Build 0)  -->
<svg version="1.1" id="Capa_1" xmlns="http://www.w3.org/2000/svg" xmlns:xlink="http://www.w3.org/1999/xlink" x="0px" y="0px"
	 viewBox="0 0 30 30" style="enable-background:new 0 0 30 30;" xml:space="preserve">
<style type="text/css">
	.st0{fill:#5F6368;}
	.st1{fill:#0A858D;}
	.st2{fill:#626262;}
	.st3{fill:#424242;}
</style>
<g>
	<path class="st0" d="M23.1,18.6c-1.5,0-2.2,0.8-4.6,0.8s-3.1-0.8-4.6-0.8c-3.8,0-6.8,3.1-6.8,6.8v1.3c0,1.3,1.1,2.4,2.4,2.4h17.9
		c1.3,0,2.4-1.1,2.4-2.4v-1.3C29.9,21.7,26.9,18.6,23.1,18.6z M27.5,26.7H9.6v-1.3c0-2.4,2-4.4,4.4-4.4c0.7,0,1.9,0.8,4.6,0.8
		c2.6,0,3.8-0.8,4.6-0.8c2.4,0,4.4,2,4.4,4.4V26.7z M18.5,17.8c4,0,7.3-3.3,7.3-7.3s-3.3-7.3-7.3-7.3s-7.3,3.3-7.3,7.3
		S14.5,17.8,18.5,17.8z M18.5,5.6c2.7,0,4.9,2.2,4.9,4.9s-2.2,4.9-4.9,4.9s-4.9-2.2-4.9-4.9S15.8,5.6,18.5,5.6z"/>
	<g>
		<path class="st0" d="M9.5,11.3c-2.2,0-4-1.9-4-4.2s1.8-4.2,4-4.2c1.2,0,2.3,0.6,3,1.4c0.5-0.5,1-0.9,1.6-1.3
			c-1.1-1.4-2.8-2.3-4.7-2.3c-3.3,0-6.1,2.8-6.1,6.3c0,3.5,2.7,6.3,6.1,6.3c0.3,0,0.7,0,1-0.1c-0.2-0.6-0.4-1.3-0.4-2
			C9.9,11.3,9.7,11.3,9.5,11.3z"/>
		<path class="st0" d="M2.1,21v-1.1c0-2.1,1.6-3.8,3.6-3.8c0.6,0,1.6,0.7,3.8,0.7c1.4,0,2.3-0.3,2.9-0.5c-0.5-0.5-1-1.1-1.3-1.8
			c-0.4,0.1-0.9,0.2-1.6,0.2c-2,0-2.6-0.7-3.8-0.7c-3.1,0-5.7,2.6-5.7,5.9V21c0,1.2,0.9,2.1,2,2.1h4.2c0.2-0.7,0.6-1.4,1-2.1H2.1z"
			/>
	</g>
</g>
</svg>
