<?xml version="1.0" encoding="utf-8"?>
<!-- Generator: Adobe Illustrator 21.0.0, SVG Export Plug-In . SVG Version: 6.00 Build 0)  -->
<svg version="1.1" id="Capa_1" xmlns="http://www.w3.org/2000/svg" xmlns:xlink="http://www.w3.org/1999/xlink" x="0px" y="0px"
	 viewBox="0 0 30 30" style="enable-background:new 0 0 30 30;" xml:space="preserve">
<style type="text/css">
	.st0{fill:#5F6368;}
	.st1{fill:#0A858D;}
	.st2{fill:#626262;}
	.st3{fill:#424242;}
</style>
<g>
	<path class="st1" d="M18.7,17.9c-1.2,0-1.8,0.7-3.7,0.7s-2.5-0.7-3.7-0.7c-3.1,0-5.6,2.5-5.6,5.6v1.1c0,1.1,0.9,2,2,2h14.6
		c1.1,0,2-0.9,2-2v-1.1C24.3,20.4,21.8,17.9,18.7,17.9z M22.3,24.5H7.7v-1.1c0-2,1.6-3.6,3.6-3.6c0.6,0,1.6,0.7,3.7,0.7
		c2.1,0,3.1-0.7,3.7-0.7c2,0,3.6,1.6,3.6,3.6V24.5z M15,17.3c3.3,0,6-2.7,6-6s-2.7-6-6-6s-6,2.7-6,6S11.7,17.3,15,17.3z M15,7.3
		c2.2,0,4,1.8,4,4s-1.8,4-4,4s-4-1.8-4-4S12.8,7.3,15,7.3z"/>
	<g>
		<path class="st1" d="M7.7,12c-1.8,0-3.3-1.5-3.3-3.4s1.5-3.4,3.3-3.4c1,0,1.9,0.5,2.5,1.2c0.4-0.4,0.8-0.7,1.3-1
			c-0.9-1.1-2.3-1.8-3.8-1.8c-2.7,0-4.9,2.3-4.9,5.1c0,2.8,2.2,5.1,4.9,5.1c0.3,0,0.5,0,0.8-0.1c-0.2-0.5-0.3-1.1-0.4-1.7
			C7.9,12,7.8,12,7.7,12z"/>
		<path class="st1" d="M1.6,19.9V19c0-1.7,1.3-3.1,3-3.1c0.5,0,1.3,0.6,3.1,0.6c1.1,0,1.8-0.2,2.3-0.4c-0.4-0.4-0.8-0.9-1.1-1.5
			c-0.3,0.1-0.7,0.1-1.3,0.1c-1.6,0-2.1-0.6-3.1-0.6C2.1,14.2,0,16.4,0,19v0.9c0,0.9,0.7,1.7,1.6,1.7H5c0.2-0.6,0.5-1.2,0.8-1.7H1.6
			z"/>
		<path class="st1" d="M25.4,14.2c-1,0-1.5,0.6-3.1,0.6c-0.5,0-0.9-0.1-1.3-0.1c-0.3,0.5-0.7,1-1.1,1.5c0.5,0.2,1.2,0.4,2.3,0.4
			c1.8,0,2.6-0.6,3.1-0.6c1.6,0,3,1.4,3,3.1v0.9h-4.2c0.3,0.5,0.6,1.1,0.8,1.7h3.4c0.9,0,1.6-0.8,1.6-1.7V19
			C30,16.4,27.9,14.2,25.4,14.2z"/>
		<path class="st1" d="M22.3,5.2c1.8,0,3.3,1.5,3.3,3.4S24.2,12,22.3,12c-0.1,0-0.3,0-0.4,0c-0.1,0.6-0.2,1.1-0.4,1.7
			c0.3,0,0.5,0.1,0.8,0.1c2.7,0,4.9-2.3,4.9-5.1c0-2.8-2.2-5.1-4.9-5.1c-1.5,0-2.9,0.7-3.8,1.8c0.5,0.3,0.9,0.6,1.3,1
			C20.5,5.6,21.4,5.2,22.3,5.2z"/>
	</g>
</g>
</svg>
