<?xml version="1.0" encoding="utf-8"?>
<!-- Generator: Adobe Illustrator 21.0.0, SVG Export Plug-In . SVG Version: 6.00 Build 0)  -->
<svg version="1.1" id="Capa_1" xmlns="http://www.w3.org/2000/svg" xmlns:xlink="http://www.w3.org/1999/xlink" x="0px" y="0px"
	 viewBox="0 0 24 24" style="enable-background:new 0 0 24 24;" xml:space="preserve">
<style type="text/css">
	.st0{fill:#5F6368;}
	.st1{fill:#0A858D;}
	.st2{fill:#626262;}
</style>
<g>
	<path class="st1" d="M15,14.3c-0.9,0-1.4,0.5-3,0.5s-2-0.5-3-0.5c-2.5,0-4.4,2-4.4,4.4v0.8c0,0.9,0.7,1.6,1.6,1.6h11.6
		c0.9,0,1.6-0.7,1.6-1.6v-0.8C19.4,16.3,17.4,14.3,15,14.3z M17.8,19.6H6.2v-0.8c0-1.6,1.3-2.9,2.9-2.9c0.5,0,1.3,0.5,3,0.5
		c1.7,0,2.5-0.5,3-0.5c1.6,0,2.9,1.3,2.9,2.9V19.6z M12,13.8c2.6,0,4.8-2.1,4.8-4.8S14.6,4.3,12,4.3S7.2,6.4,7.2,9S9.4,13.8,12,13.8
		z M12,5.9c1.8,0,3.2,1.4,3.2,3.2s-1.4,3.2-3.2,3.2S8.8,10.8,8.8,9S10.2,5.9,12,5.9z"/>
	<g>
		<path class="st1" d="M6.1,9.6c-1.4,0-2.6-1.2-2.6-2.7s1.2-2.7,2.6-2.7c0.8,0,1.5,0.4,2,0.9c0.3-0.3,0.7-0.6,1.1-0.8
			c-0.7-0.9-1.8-1.5-3-1.5C4,2.8,2.2,4.6,2.2,6.9c0,2.2,1.8,4.1,3.9,4.1c0.2,0,0.4,0,0.6-0.1C6.6,10.5,6.5,10,6.5,9.6
			C6.4,9.6,6.2,9.6,6.1,9.6z"/>
		<path class="st1" d="M1.3,15.9v-0.7c0-1.3,1.1-2.4,2.4-2.4c0.4,0,1,0.5,2.5,0.5C7,13.2,7.6,13,8,12.9c-0.3-0.3-0.6-0.7-0.9-1.2
			c-0.3,0.1-0.6,0.1-1,0.1c-1.3,0-1.7-0.5-2.5-0.5c-2,0-3.7,1.7-3.7,3.8v0.7c0,0.7,0.6,1.4,1.3,1.4H4c0.1-0.5,0.4-0.9,0.6-1.4H1.3z"
			/>
		<path class="st1" d="M20.3,11.4c-0.8,0-1.2,0.5-2.5,0.5c-0.4,0-0.7,0-1-0.1c-0.2,0.4-0.5,0.8-0.9,1.2c0.4,0.1,1,0.3,1.9,0.3
			c1.4,0,2-0.5,2.5-0.5c1.3,0,2.4,1.1,2.4,2.4v0.7h-3.3c0.3,0.4,0.5,0.9,0.6,1.4h2.7c0.7,0,1.3-0.6,1.3-1.4v-0.7
			C24,13.1,22.4,11.4,20.3,11.4z"/>
		<path class="st1" d="M17.9,4.1c1.4,0,2.6,1.2,2.6,2.7s-1.2,2.7-2.6,2.7c-0.1,0-0.2,0-0.3,0c0,0.5-0.1,0.9-0.3,1.3
			c0.2,0,0.4,0.1,0.6,0.1c2.2,0,3.9-1.8,3.9-4.1c0-2.2-1.8-4.1-3.9-4.1c-1.2,0-2.3,0.6-3,1.5c0.4,0.2,0.7,0.5,1.1,0.8
			C16.4,4.5,17.1,4.1,17.9,4.1z"/>
	</g>
</g>
</svg>
