<?xml version="1.0" encoding="utf-8"?>
<!-- Generator: Adobe Illustrator 21.0.0, SVG Export Plug-In . SVG Version: 6.00 Build 0)  -->
<svg version="1.1" id="Capa_1" xmlns="http://www.w3.org/2000/svg" xmlns:xlink="http://www.w3.org/1999/xlink" x="0px" y="0px"
	 viewBox="0 0 30 30" style="enable-background:new 0 0 30 30;" xml:space="preserve">
<style type="text/css">
	.st0{fill:#5F6368;}
	.st1{fill:#0A858D;}
	.st2{fill:#626262;}
	.st3{fill:#424242;}
</style>
<g>
	<g>
		<path class="st1" d="M28,6.6v20.4c0,1.5-1.2,2.8-2.8,2.8H4.8c-1.5,0-2.8-1.2-2.8-2.8V6.6c0-1.5,1.2-2.8,2.8-2.8h2.8v-3
			c0-0.4,0.3-0.7,0.7-0.7h2.3c0.4,0,0.7,0.3,0.7,0.7v3h7.4v-3c0-0.4,0.3-0.7,0.7-0.7h2.3c0.4,0,0.7,0.3,0.7,0.7v3h2.8
			C26.8,3.9,28,5.1,28,6.6z M25.2,26.7V9.4H4.8v17.3c0,0.2,0.2,0.3,0.3,0.3h19.7C25.1,27.1,25.2,26.9,25.2,26.7z"/>
	</g>
	<g>
		<path class="st1" d="M12.6,22.8h-2.4v-4.7c0-0.6,0-1.1,0-1.6c-0.2,0.2-0.3,0.4-0.6,0.6l-1,0.8l-1.2-1.5l3.1-2.5h2.2V22.8z"/>
		<path class="st1" d="M21.3,21.1h-1v1.7h-2.4v-1.7h-3.6v-1.8l3.7-5.4h2.2v5.4h1V21.1z M17.9,19.3v-1c0-0.2,0-0.5,0-0.8
			c0-0.3,0-0.5,0-0.5h-0.1c-0.1,0.3-0.3,0.6-0.5,0.9l-1,1.5H17.9z"/>
	</g>
</g>
</svg>
