<?xml version="1.0" encoding="utf-8"?>
<!-- Generator: Adobe Illustrator 21.0.0, SVG Export Plug-In . SVG Version: 6.00 Build 0)  -->
<svg version="1.1" id="Capa_1" xmlns="http://www.w3.org/2000/svg" xmlns:xlink="http://www.w3.org/1999/xlink" x="0px" y="0px"
	 viewBox="0 0 18 18" style="enable-background:new 0 0 18 18;" xml:space="preserve">
<style type="text/css">
	.st0{fill:#5F6368;}
	.st1{fill:#0A858D;}
	.st2{fill:#626262;}
	.st3{fill:#424242;}
</style>
<g>
	<g>
		<path class="st2" d="M15.5,18h-13C1.1,18,0,16.9,0,15.5v-13C0,1.1,1.1,0,2.5,0h13C16.9,0,18,1.1,18,2.5v13
			C18,16.9,16.9,18,15.5,18z M2.5,1.5c-0.6,0-1,0.5-1,1v13c0,0.6,0.5,1,1,1h13c0.6,0,1-0.5,1-1v-13c0-0.6-0.5-1-1-1H2.5z"/>
	</g>
	<g>
		<g>
			<path class="st2" d="M4.7,14.5c-0.3,0-0.6-0.1-0.8-0.4c-0.3-0.3-0.4-0.6-0.3-1l0.3-2.4L9,5.6c0.4-0.4,1-0.4,1.4,0l0,0l2,2
				c0.4,0.4,0.4,1,0,1.4l-5.2,5.2l-2.4,0.3C4.8,14.5,4.8,14.5,4.7,14.5z M5.2,11.5l-0.2,1.5l1.5-0.2L11,8.3L9.7,7L5.2,11.5z"/>
		</g>
		<g>
			<path class="st2" d="M12.4,8.6c-0.2,0-0.5-0.1-0.7-0.3l-2-2c-0.4-0.4-0.4-1,0-1.4L10.6,4c0.3-0.3,0.7-0.5,1.1-0.5c0,0,0,0,0,0
				c0.4,0,0.8,0.2,1.2,0.5L14,5.1c0.6,0.6,0.6,1.7,0,2.3l-0.9,0.9C12.9,8.5,12.7,8.6,12.4,8.6z M11.2,5.6l1.3,1.3l0.5-0.5
				c0.1-0.1,0-0.1,0-0.2l-1.1-1.1c0,0-0.1,0-0.1,0c0,0-0.1,0-0.1,0L11.2,5.6z M10.8,5.9L10.8,5.9C10.8,5.9,10.8,5.9,10.8,5.9z"/>
		</g>
	</g>
</g>
</svg>
