<?xml version="1.0" encoding="utf-8"?>
<!-- Generator: Adobe Illustrator 21.0.0, SVG Export Plug-In . SVG Version: 6.00 Build 0)  -->
<svg version="1.1" id="Capa_1" xmlns="http://www.w3.org/2000/svg" xmlns:xlink="http://www.w3.org/1999/xlink" x="0px" y="0px"
	 viewBox="0 0 30 30" style="enable-background:new 0 0 30 30;" xml:space="preserve">
<style type="text/css">
	.st0{fill:#5F6368;}
	.st1{fill:#0A858D;}
	.st2{fill:#626262;}
	.st3{fill:#424242;}
</style>
<path class="st1" d="M15,0.5c3.9,0,7.4,1.5,10,4l2.9-2.9c0.6-0.6,1.6-0.2,1.6,0.7v8.5c0,0.5-0.4,0.9-0.9,0.9h-8.5
	c-0.8,0-1.3-1-0.7-1.6l3-3c-1.9-1.8-4.5-2.9-7.4-2.9C9.1,4.2,4.2,9.1,4.2,15c0,5.9,4.8,10.8,10.8,10.8c2.5,0,4.8-0.9,6.7-2.3
	c0.6-0.4,1.4-0.4,1.9,0.1l0.7,0.7c0.6,0.6,0.5,1.6-0.1,2.1c-2.5,2-5.7,3.2-9.1,3.2C7,29.5,0.5,23,0.5,15C0.5,7,7,0.5,15,0.5z
	 M18.2,19.6l0.6-0.7c0.5-0.6,0.4-1.5-0.2-2L16.1,15V8.9c0-0.8-0.6-1.4-1.4-1.4h-0.9c-0.8,0-1.4,0.6-1.4,1.4v7.9l3.8,3
	C16.8,20.3,17.7,20.2,18.2,19.6z"/>
</svg>
