<?xml version="1.0" encoding="utf-8"?>
<!-- Generator: Adobe Illustrator 21.0.0, SVG Export Plug-In . SVG Version: 6.00 Build 0)  -->
<svg version="1.1" id="Capa_1" xmlns="http://www.w3.org/2000/svg" xmlns:xlink="http://www.w3.org/1999/xlink" x="0px" y="0px"
	 viewBox="0 0 24 24" style="enable-background:new 0 0 24 24;" xml:space="preserve">
<style type="text/css">
	.st0{fill:#5F6368;}
	.st1{fill:#0A858D;}
	.st2{fill:#626262;}
</style>
<g>
	<g>
		<g>
			<path class="st1" d="M17.8,12.6c0-0.2,0-0.4,0-0.6c0-1.6,0-3.3,0-4.9c0-4.1,0-4.1-4-4.2c-0.7,0-1.2-0.1-1.4-0.9
				C12,0.8,11.1,0.1,10,0.1C8.7,0.1,7.8,0.8,7.5,2C7.3,2.7,6.9,2.8,6.3,2.8c-0.6,0-1.3,0-1.9,0c-1.7,0-2.3,0.6-2.3,2.3
				c0,4.6,0,9.1,0,13.7c0,1.7,0.7,2.3,2.3,2.3c2.3,0,4.5,0,6.8,0c1,1.7,2.8,2.8,4.9,2.8c3.2,0,5.8-2.5,5.8-5.7
				C22,15.6,20.1,13.4,17.8,12.6z M9.9,1.7c0.6,0,1,0.3,1,0.9c0,0.6-0.3,1-1,1c-0.6,0-1-0.3-1-1C8.9,2.1,9.3,1.8,9.9,1.7z M5.1,19.2
				c-1,0-1.1-0.4-1.1-1.2c0-2,0-4,0-6.1c0-2,0-3.9,0-5.9c0-0.6-0.2-1.3,0.8-1.4c0.8,0,1.3,0.1,1.2,1.1C6,6.5,6.5,6.6,7.2,6.6
				c1.8,0,3.6,0,5.4,0c0.8,0,1.4-0.2,1.2-1.1c-0.1-0.9,0.5-0.9,1.1-0.9c0.7,0,1,0.3,1,0.9c0,2.3,0,4.5,0,6.8c-3,0.1-5.5,2.7-5.5,5.8
				c0,0.3,0,0.7,0.1,1C8.7,19.1,6.9,19.1,5.1,19.2z M16.2,22.6c-1.4,0-2.6-0.5-3.4-1.5c-0.5-0.5-0.9-1.2-1-2
				c-0.1-0.3-0.1-0.6-0.1-0.9c0-2.4,1.8-4.3,4.2-4.4c0.1,0,0.1,0,0.2,0c0.6,0,1.2,0.1,1.7,0.3c1.7,0.6,2.8,2.2,2.8,4.1
				C20.6,20.6,18.7,22.5,16.2,22.6z"/>
			<path class="st1" d="M16.1,24C16.1,24,16.1,24,16.1,24c-2,0-3.9-1-4.9-2.8c-2.2,0-4.5,0-6.8,0c-1.7,0-2.4-0.7-2.5-2.4
				c0-4.5,0-9.1,0-13.7c0-1.7,0.7-2.4,2.5-2.4c0.7,0,1.3,0,1.9,0c0.5,0,0.8-0.1,1-0.7C7.7,0.7,8.7,0,10,0c0,0,0,0,0,0
				c1.2,0,2.2,0.7,2.5,1.9c0.2,0.8,0.6,0.8,1.3,0.8c4.1,0.1,4.2,0.2,4.2,4.4l0,4.9l0,0.5c2.4,0.8,4.2,3.2,4.1,5.6
				C22,21.4,19.4,24,16.1,24z M11.3,21L11.3,21c1,1.7,2.8,2.8,4.8,2.8c0,0,0,0,0,0c3.1,0,5.6-2.5,5.7-5.6c0-2.4-1.7-4.6-4.1-5.4
				l-0.1,0l0-5.7c0-4,0-4-3.9-4.1c-0.7,0-1.3-0.1-1.5-1c-0.3-1-1.1-1.7-2.3-1.7c0,0,0,0,0,0c-1.2,0-2,0.7-2.4,1.8
				C7.4,2.8,7,2.9,6.3,2.9c-0.6,0-1.2,0-1.9,0c-1.6,0-2.2,0.6-2.2,2.2c0,4.6,0,9.2,0,13.7c0,1.6,0.6,2.2,2.2,2.2
				C6.7,21,9,21,11.3,21L11.3,21z M16.2,22.7c-1.3,0-2.6-0.5-3.4-1.5c-0.5-0.6-0.9-1.3-1-2c-0.1-0.3-0.1-0.6-0.1-1
				c0-2.5,1.8-4.4,4.3-4.6l0.1,0c0.1,0,0.1,0,0.2,0c0.6,0,1.1,0.1,1.7,0.3c1.8,0.7,2.8,2.3,2.8,4.2C20.7,20.7,18.7,22.7,16.2,22.7
				l0-0.1L16.2,22.7C16.2,22.7,16.2,22.7,16.2,22.7z M16.1,13.9c0,0-0.1,0-0.1,0l-0.1,0c-2.3,0.1-4.1,2-4.1,4.3c0,0.3,0,0.6,0.1,0.9
				c0.2,0.7,0.5,1.4,1,1.9c0.8,0.9,2,1.4,3.2,1.4c0,0,0,0,0,0c2.4,0,4.2-1.9,4.2-4.3c0-1.8-1-3.3-2.7-4C17.2,14,16.7,13.9,16.1,13.9
				z M5,19.3c-0.4,0-0.7-0.1-0.9-0.3c-0.2-0.2-0.3-0.6-0.3-1.1c0-1.4,0-2.9,0-4.3c0-0.6,0-1.2,0-1.7l0-1.3c0-1.5,0-3.1,0-4.6
				c0-0.1,0-0.2,0-0.2c0-0.5,0-1.2,1-1.3c0.4,0,0.9,0,1.2,0.3c0.2,0.2,0.3,0.5,0.2,1c0,0.3,0,0.5,0.1,0.6c0.2,0.2,0.5,0.2,0.9,0.2
				c1.9,0,3.7,0,5.4,0c0.5,0,0.8-0.1,1-0.2c0.1-0.2,0.2-0.4,0.2-0.8c0-0.3,0-0.6,0.2-0.7c0.2-0.3,0.6-0.3,1-0.3l0,0
				c0.4,0,0.7,0.1,0.8,0.3c0.2,0.2,0.3,0.4,0.3,0.8c0,2.3,0,4.5,0,6.8v0.1l-0.1,0c-3,0.1-5.4,2.6-5.4,5.7c0,0.3,0,0.6,0.1,1l0,0.1
				l-0.1,0C8.3,19.3,6.6,19.3,5,19.3C5,19.3,5,19.3,5,19.3z M5,4.7c-0.1,0-0.1,0-0.2,0c-0.8,0-0.8,0.4-0.7,1c0,0.1,0,0.2,0,0.2
				c0,1.5,0,3.1,0,4.6l0,1.3c0,0.6,0,1.2,0,1.7c0,1.4,0,2.9,0,4.3c0,0.5,0,0.8,0.2,0.9C4.4,19,4.6,19,5,19c0,0,0,0,0,0l0,0
				c1.5,0,3.2,0,5.3,0c0-0.3-0.1-0.6-0.1-0.9c0-3.1,2.5-5.7,5.5-5.9c0-2.2,0-4.5,0-6.7c0-0.3-0.1-0.5-0.2-0.6
				c-0.1-0.1-0.3-0.2-0.7-0.2l0,0c-0.4,0-0.7,0-0.9,0.2C14,5,13.9,5.2,14,5.5c0,0.4,0,0.7-0.2,1c-0.3,0.3-0.8,0.3-1.2,0.3
				c-1.8,0-3.5,0-5.4,0c-0.4,0-0.8,0-1.1-0.3C6,6.3,5.9,6,5.9,5.7c0-0.4,0-0.6-0.2-0.8C5.6,4.8,5.4,4.7,5,4.7z M10,3.8
				C9.3,3.8,8.9,3.4,8.8,2.8c0-0.3,0.1-0.6,0.3-0.8c0.2-0.2,0.5-0.3,0.8-0.3l0,0c0.4,0,0.6,0.1,0.8,0.3c0.2,0.2,0.3,0.5,0.3,0.8
				C11.1,3.3,10.7,3.7,10,3.8z M9.9,1.9C9.7,1.9,9.4,2,9.3,2.1C9.1,2.3,9.1,2.5,9.1,2.7c0,0.5,0.3,0.8,0.9,0.8
				c0.6-0.1,0.9-0.4,0.8-0.9c0-0.3-0.1-0.5-0.2-0.6C10.4,1.9,10.2,1.8,9.9,1.9L9.9,1.9z"/>
		</g>
		<g>
			<path class="st1" d="M18.9,16c-0.3-0.2-0.6,0-0.8,0.2c-0.1,0.1-0.2,0.2-0.4,0.3c-0.6,0.6-1.3,1.2-1.9,1.8c0,0,0,0,0,0
				c-0.5,0.6-1,0.7-1.4,0c-0.1-0.1-0.2-0.2-0.2-0.3c-0.3-0.4-0.6-0.5-1-0.1c-0.4,0.4-0.4,0.7-0.1,1.1c0,0,0,0,0,0
				c0.5,0.5,0.9,0.9,1.4,1.4c0.4,0.5,0.8,0.5,1.2,0c0.6-0.7,1.3-1.3,2-2c0.4-0.4,0.9-0.8,1.3-1.3c0.2-0.2,0.4-0.4,0.4-0.7
				C19.4,16.4,19.2,16.2,18.9,16z"/>
			<path class="st1" d="M15.2,21.1C15.2,21.1,15.2,21.1,15.2,21.1c-0.2,0-0.5-0.1-0.7-0.4c-0.3-0.3-0.6-0.6-0.9-1
				c-0.2-0.2-0.3-0.3-0.5-0.5l0,0c-0.2-0.2-0.3-0.4-0.3-0.6c0-0.2,0.1-0.4,0.4-0.7c0.2-0.2,0.4-0.3,0.6-0.3c0,0,0,0,0,0
				c0.2,0,0.4,0.1,0.6,0.4c0,0,0.1,0.1,0.1,0.1c0.1,0.1,0.1,0.1,0.2,0.2c0.2,0.3,0.4,0.4,0.6,0.4c0.2,0,0.4-0.1,0.7-0.4
				c0.5-0.5,1-1.1,1.6-1.5l0.3-0.3c0.1-0.1,0.2-0.2,0.4-0.3c0.2-0.2,0.5-0.5,0.9-0.2l0,0c0.3,0.2,0.5,0.4,0.6,0.7
				c0,0.4-0.2,0.6-0.4,0.8l0,0c-0.3,0.3-0.7,0.7-1,1l-0.3,0.3c-0.6,0.6-1.3,1.3-2,2C15.7,20.9,15.4,21.1,15.2,21.1z M13.7,17.9
				c-0.1,0-0.2,0.1-0.4,0.2c-0.2,0.2-0.3,0.4-0.3,0.5c0,0.1,0.1,0.3,0.2,0.4c0,0,0,0,0,0c0.1,0.1,0.3,0.3,0.5,0.5
				c0.3,0.3,0.6,0.6,0.9,1c0.2,0.2,0.4,0.3,0.5,0.3c0.2,0,0.3-0.1,0.5-0.3c0.7-0.7,1.3-1.4,2-2l0.3-0.3c0.3-0.3,0.7-0.7,1-1l0,0
				c0.2-0.2,0.3-0.3,0.3-0.6c0-0.2-0.2-0.4-0.5-0.5l0,0c-0.2-0.1-0.4,0-0.6,0.2c-0.1,0.1-0.2,0.2-0.4,0.3l-0.3,0.3
				c-0.5,0.5-1.1,1-1.6,1.5c-0.3,0.4-0.6,0.5-0.9,0.5c-0.3,0-0.5-0.2-0.7-0.5c0,0-0.1-0.1-0.1-0.1c0,0-0.1-0.1-0.1-0.1
				C14,18,13.8,17.9,13.7,17.9C13.7,17.9,13.7,17.9,13.7,17.9z"/>
		</g>
	</g>
</g>
</svg>
