<?xml version="1.0" encoding="utf-8"?>
<!-- Generator: Adobe Illustrator 21.0.0, SVG Export Plug-In . SVG Version: 6.00 Build 0)  -->
<svg version="1.1" id="Capa_1" xmlns="http://www.w3.org/2000/svg" xmlns:xlink="http://www.w3.org/1999/xlink" x="0px" y="0px"
	 viewBox="0 0 30 30" style="enable-background:new 0 0 30 30;" xml:space="preserve">
<style type="text/css">
	.st0{fill:#5F6368;}
	.st1{fill:#0A858D;}
	.st2{fill:#626262;}
	.st3{fill:#424242;}
</style>
<g>
	<g>
		<path class="st0" d="M22.2,15.8c0-0.3,0-0.5,0-0.8c0-2.1,0-4.1,0-6.2c0-5.2,0-5.2-5-5.3c-0.9,0-1.4-0.1-1.7-1.1
			c-0.4-1.4-1.5-2.2-3-2.2c-1.5,0-2.7,0.8-3.1,2.3c-0.2,0.8-0.7,1-1.4,1c-0.8,0-1.6,0-2.4,0c-2.1,0-2.9,0.8-2.9,2.9
			c0,5.7,0,11.4,0,17.1c0,2.1,0.8,2.9,2.9,2.9c2.8,0,5.7,0,8.5,0c1.2,2.1,3.5,3.4,6.1,3.5c4,0,7.2-3.2,7.3-7.2
			C27.4,19.5,25.2,16.7,22.2,15.8z M12.4,2.2c0.8,0,1.3,0.4,1.3,1.2c0,0.8-0.4,1.2-1.2,1.3c-0.7-0.1-1.2-0.4-1.3-1.2
			C11.2,2.7,11.6,2.2,12.4,2.2z M6.3,24c-1.2,0-1.4-0.5-1.4-1.6c0.1-2.5,0-5,0-7.6c0-2.5,0-4.9,0-7.4C5,6.7,4.7,5.8,6,5.8
			c1,0,1.7,0.1,1.6,1.4C7.5,8.2,8.2,8.3,9,8.3c2.3,0,4.5,0,6.8,0c1,0,1.7-0.2,1.6-1.4c-0.1-1.1,0.6-1.1,1.4-1.1
			c0.8,0,1.2,0.3,1.2,1.2c0,2.8,0,5.7,0,8.5c-3.8,0.1-6.9,3.3-6.9,7.2c0,0.4,0,0.8,0.1,1.3C10.9,23.9,8.6,23.9,6.3,24z M20.3,28.2
			c-1.7,0-3.2-0.7-4.2-1.8c-0.6-0.7-1.1-1.5-1.3-2.5c-0.1-0.4-0.1-0.8-0.1-1.2c0-3,2.2-5.4,5.2-5.5c0.1,0,0.2,0,0.2,0
			c0.7,0,1.5,0.1,2.1,0.4c2.1,0.8,3.5,2.7,3.5,5.1C25.7,25.7,23.3,28.2,20.3,28.2z"/>
		<path class="st0" d="M23.7,20c-0.4-0.2-0.7,0-1,0.2c-0.2,0.1-0.3,0.3-0.5,0.4c-0.8,0.7-1.6,1.4-2.3,2.2c0,0,0,0,0,0
			c-0.7,0.7-1.2,0.9-1.8,0c-0.1-0.1-0.2-0.2-0.3-0.3c-0.4-0.4-0.8-0.6-1.3-0.1c-0.5,0.5-0.6,0.9-0.1,1.4c0,0,0,0,0,0
			c0.6,0.6,1.2,1.2,1.7,1.8c0.5,0.6,1,0.6,1.6,0c0.8-0.8,1.6-1.7,2.5-2.5c0.5-0.5,1.1-1.1,1.6-1.6c0.2-0.2,0.5-0.5,0.5-0.9
			C24.2,20.5,24,20.2,23.7,20z"/>
	</g>
</g>
</svg>
