<svg xmlns="http://www.w3.org/2000/svg" viewBox="0 0 53 49.25">
  <defs>
    <style>
      .cls-1 {
        fill: #407f87;
      }
    </style>
  </defs>
  <g id="_24-hours" data-name="24-hours" transform="translate(0 -18.11)">
    <g id="Group_373" data-name="Group 373" transform="translate(0 18.11)">
      <g id="Group_372" data-name="Group 372" transform="translate(0 0)">
        <path id="Path_404" data-name="Path 404" class="cls-1" d="M43.14,37.811a1.039,1.039,0,0,0,0,1.47l4.043,4.043.007.007c.022.022.045.043.069.062l.04.03c.014.01.028.021.042.031l.047.028.041.024.048.023.044.021.047.017.049.017.048.012.051.012.055.008.046.007c.034,0,.068.005.1.005s.069,0,.1-.005l.046-.007.055-.008.051-.012.048-.012.049-.017.047-.017.044-.021.048-.023.041-.024.047-.028c.014-.01.028-.02.042-.031l.04-.03c.024-.02.047-.04.069-.062l.007-.007L52.7,39.28a1.039,1.039,0,1,0-1.47-1.47l-2.384,2.384A24.48,24.48,0,0,0,7.169,25.28,24.483,24.483,0,0,0,34.916,64.735a8.246,8.246,0,1,0-1.243-1.716,22.079,22.079,0,0,1-8.156,1.944V61.456a1.039,1.039,0,1,0-2.078,0v3.507A22.429,22.429,0,0,1,2.1,43.628H5.611a1.039,1.039,0,0,0,0-2.078H2.1A22.429,22.429,0,0,1,23.439,20.214v3.507a1.039,1.039,0,0,0,2.078,0V20.214a22.435,22.435,0,0,1,21.2,19.706l-2.109-2.109A1.039,1.039,0,0,0,43.14,37.811ZM40.961,52.859a6.211,6.211,0,1,1-6.212,6.212A6.218,6.218,0,0,1,40.961,52.859Z" transform="translate(0 -18.11)"/>
      </g>
    </g>
    <g id="Group_375" data-name="Group 375" transform="translate(14.063 33.13)">
      <g id="Group_374" data-name="Group 374">
        <path id="Path_405" data-name="Path 405" class="cls-1" d="M144.563,180.051h-5.521c.71-.924,1.623-2.149,2.544-3.489,2.7-3.933,4.016-6.706,4.016-8.476a4.872,4.872,0,0,0-9.745,0,1.039,1.039,0,1,0,2.078,0,2.794,2.794,0,1,1,5.588,0c0,2.418-4.557,8.855-7.429,12.344a1.039,1.039,0,0,0,.8,1.7h7.666a1.039,1.039,0,0,0,0-2.078Z" transform="translate(-135.857 -163.213)"/>
      </g>
    </g>
    <g id="Group_377" data-name="Group 377" transform="translate(25.149 33.13)">
      <g id="Group_376" data-name="Group 376">
        <path id="Path_406" data-name="Path 406" class="cls-1" d="M252.027,163.281a1.039,1.039,0,0,0-1.144.271L243.216,172a1.039,1.039,0,0,0,.769,1.738h6.627v7.354a1.039,1.039,0,0,0,2.078,0V164.251A1.039,1.039,0,0,0,252.027,163.281Zm-1.414,8.375h-4.28l4.28-4.715Z" transform="translate(-242.947 -163.212)"/>
      </g>
    </g>
    <g id="Group_379" data-name="Group 379" transform="translate(38.586 55.3)">
      <g id="Group_378" data-name="Group 378">
        <path id="Path_407" data-name="Path 407" class="cls-1" d="M377.314,377.824a1.039,1.039,0,0,0-.848-.438H373.8a1.039,1.039,0,1,0,0,2.078H375l-1.433,4.078a1.039,1.039,0,1,0,1.961.689l1.92-5.462A1.039,1.039,0,0,0,377.314,377.824Z" transform="translate(-372.756 -377.385)"/>
      </g>
    </g>
    <g id="Group_381" data-name="Group 381" transform="translate(46.796 45.222)">
      <g id="Group_380" data-name="Group 380">
        <path id="Path_408" data-name="Path 408" class="cls-1" d="M453.078,280.021a1.04,1.04,0,0,0,0,2.078A1.04,1.04,0,0,0,453.078,280.021Z" transform="translate(-452.074 -280.021)"/>
      </g>
    </g>
    <g id="Group_383" data-name="Group 383" transform="translate(46.015 49.128)">
      <g id="Group_382" data-name="Group 382">
        <path id="Path_409" data-name="Path 409" class="cls-1" d="M445.531,317.76a1.04,1.04,0,0,0,0,2.078A1.04,1.04,0,0,0,445.531,317.76Z" transform="translate(-444.527 -317.76)"/>
      </g>
    </g>
    <g id="Group_385" data-name="Group 385" transform="translate(32.815 25.901)">
      <g id="Group_384" data-name="Group 384">
        <path id="Path_410" data-name="Path 410" class="cls-1" d="M326.392,102.452a19.476,19.476,0,0,0-7.809-8.933,1.039,1.039,0,1,0-1.07,1.782,17.382,17.382,0,0,1,6.969,7.972,1.039,1.039,0,0,0,1.91-.821Z" transform="translate(-317.009 -93.37)"/>
      </g>
    </g>
    <g id="Group_387" data-name="Group 387" transform="translate(29.53 24.322)">
      <g id="Group_386" data-name="Group 386">
        <path id="Path_411" data-name="Path 411" class="cls-1" d="M286.275,78.123a1.04,1.04,0,0,0,0,2.078A1.04,1.04,0,0,0,286.275,78.123Z" transform="translate(-285.271 -78.123)"/>
      </g>
    </g>
  </g>
</svg>
