<svg xmlns="http://www.w3.org/2000/svg" viewBox="0 0 50 52.806">
  <defs>
    <style>
      .cls-1 {
        fill: #407f87;
      }
    </style>
  </defs>
  <g id="tipoactivity" transform="translate(-13.602)">
    <g id="Group_367" data-name="Group 367" transform="translate(13.601 15.125)">
      <g id="Group_366" data-name="Group 366" transform="translate(0)">
        <path id="Path_402" data-name="Path 402" class="cls-1" d="M62.57,182.272H60.308V149.426a2.776,2.776,0,0,0-2.772-2.773H52.479a2.776,2.776,0,0,0-2.773,2.773v32.845H43.963V164.308a2.776,2.776,0,0,0-2.772-2.772H36.134a2.776,2.776,0,0,0-2.772,2.772v17.964H27.618v-9.3a2.776,2.776,0,0,0-2.773-2.772H19.789a2.776,2.776,0,0,0-2.772,2.772v9.3H14.632a1.031,1.031,0,0,0,0,2.063H62.57a1.031,1.031,0,0,0,0-2.063Zm-37.015,0H19.079v-9.3a.711.711,0,0,1,.71-.71h5.056a.711.711,0,0,1,.71.71v9.3Zm16.345,0H35.424V164.308a.711.711,0,0,1,.71-.71H41.19a.711.711,0,0,1,.71.71Zm16.345,0H51.769V149.426a.711.711,0,0,1,.71-.71h5.056a.711.711,0,0,1,.71.71Z" transform="translate(-13.601 -146.654)"/>
      </g>
    </g>
    <g id="Group_369" data-name="Group 369" transform="translate(22.444)">
      <g id="Group_368" data-name="Group 368">
        <path id="Path_403" data-name="Path 403" class="cls-1" d="M137.207,1.085A1.028,1.028,0,0,0,136.125,0l-.05,0h-6.24a1.031,1.031,0,1,0,0,2.063h3.853l-10.2,10.2-3.845-3.845a1.031,1.031,0,0,0-1.459,0L99.648,26.954a1.031,1.031,0,0,0,1.459,1.458L118.918,10.6l3.845,3.845a1.032,1.032,0,0,0,1.459,0L135.147,3.521V7.008a1.031,1.031,0,1,0,2.063,0V1.134C137.209,1.118,137.208,1.1,137.207,1.085Z" transform="translate(-99.346)"/>
      </g>
    </g>
    <g id="Group_371" data-name="Group 371" transform="translate(18.968 30.251)">
      <g id="Group_370" data-name="Group 370" transform="translate(0)">
        <circle id="Ellipse_39" data-name="Ellipse 39" class="cls-1" cx="1.031" cy="1.031" r="1.031"/>
      </g>
    </g>
  </g>
</svg>
