<svg xmlns="http://www.w3.org/2000/svg" viewBox="0 0 56 43.025">
  <defs>
    <style>
      .cls-1 {
        fill: #407f87;
      }
    </style>
  </defs>
  <g id="semana" transform="translate(0 -53.868)">
    <path id="Path_386" data-name="Path 386" class="cls-1" d="M55.989,95.848,49.45,54.63v0c0-.013-.005-.025-.008-.037s-.008-.038-.013-.056-.007-.021-.01-.031-.013-.04-.02-.059l-.012-.027c-.009-.02-.018-.04-.028-.06l-.014-.025c-.011-.019-.022-.038-.034-.057l-.016-.023c-.013-.018-.026-.036-.04-.053l-.009-.012-.009-.01c-.015-.017-.031-.033-.047-.049l-.019-.018c-.018-.017-.037-.033-.057-.048l-.014-.011a.9.9,0,0,0-.343-.158l-.012,0c-.026-.006-.053-.01-.08-.013l-.022,0-.071,0H7.442a.9.9,0,0,0-.892.762L.011,95.848A.9.9,0,0,0,.9,96.893H42.02a.9.9,0,0,0,.892-.762l5.646-35.595,5.481,34.55H45.464a.9.9,0,0,0,0,1.806H55.1a.9.9,0,0,0,.892-1.045Zm-14.74-.762H1.961L6.21,68.3H45.5ZM45.784,66.5H6.5L8.213,55.675H47.5Z" transform="translate(0 0)"/>
    <path id="Path_387" data-name="Path 387" class="cls-1" d="M112.649,108.105h25.275a.9.9,0,0,0,0-1.806H112.649a.9.9,0,1,0,0,1.806Z" transform="translate(-98.288 -46.117)"/>
    <path id="Path_388" data-name="Path 388" class="cls-1" d="M97.77,223.619H94.038a.9.9,0,1,0,0,1.806H97.77a.9.9,0,0,0,0-1.806Z" transform="translate(-81.919 -149.308)"/>
    <path id="Path_389" data-name="Path 389" class="cls-1" d="M187.212,223.619H183.48a.9.9,0,0,0,0,1.806h3.732a.9.9,0,0,0,0-1.806Z" transform="translate(-160.589 -149.308)"/>
    <path id="Path_390" data-name="Path 390" class="cls-1" d="M276.654,223.619h-3.732a.9.9,0,0,0,0,1.806h3.732a.9.9,0,1,0,0-1.806Z" transform="translate(-239.26 -149.308)"/>
    <path id="Path_391" data-name="Path 391" class="cls-1" d="M89.235,277.43H85.5a.9.9,0,0,0,0,1.806h3.732a.9.9,0,0,0,0-1.806Z" transform="translate(-74.411 -196.638)"/>
    <path id="Path_392" data-name="Path 392" class="cls-1" d="M178.676,277.43h-3.732a.9.9,0,0,0,0,1.806h3.732a.9.9,0,0,0,0-1.806Z" transform="translate(-153.081 -196.638)"/>
    <path id="Path_393" data-name="Path 393" class="cls-1" d="M268.118,277.43h-3.732a.9.9,0,0,0,0,1.806h3.732a.9.9,0,0,0,0-1.806Z" transform="translate(-231.752 -196.638)"/>
    <path id="Path_394" data-name="Path 394" class="cls-1" d="M80.7,331.239H76.966a.9.9,0,0,0,0,1.806H80.7a.9.9,0,0,0,0-1.806Z" transform="translate(-66.903 -243.967)"/>
    <path id="Path_395" data-name="Path 395" class="cls-1" d="M170.14,331.239h-3.732a.9.9,0,0,0,0,1.806h3.732a.9.9,0,0,0,0-1.806Z" transform="translate(-145.573 -243.967)"/>
    <path id="Path_396" data-name="Path 396" class="cls-1" d="M259.582,331.239h-3.732a.9.9,0,1,0,0,1.806h3.732a.9.9,0,0,0,0-1.806Z" transform="translate(-224.243 -243.967)"/>
  </g>
</svg>
