<?xml version="1.0" encoding="utf-8"?>
<!-- Generator: Adobe Illustrator 21.0.0, SVG Export Plug-In . SVG Version: 6.00 Build 0)  -->
<svg version="1.1" id="Capa_1" xmlns="http://www.w3.org/2000/svg" xmlns:xlink="http://www.w3.org/1999/xlink" x="0px" y="0px"
	 viewBox="0 0 30 30" style="enable-background:new 0 0 30 30;" xml:space="preserve">
<style type="text/css">
	.st0{fill:#5F6368;}
	.st1{fill:#0A858D;}
	.st2{fill:#626262;}
	.st3{fill:#424242;}
</style>
<g>
	<g>
		<path class="st1" d="M29.5,4.4c0-0.2-0.2-0.3-0.3-0.3C19.7,4,10.3,4,0.8,4C0.7,4,0.5,4.2,0.5,4.4c0,0.6,0,0.2,0,0.8
			c0,0.2,0.2,0.3,0.3,0.3c4.3,0,9.2,0.1,13.5,0.1c0,7.2,0,12.7,0,20c0,0.2,0.2,0.3,0.3,0.3c0.7,0,0.1-0.1,0.8-0.1
			c0.2,0,0.3-0.2,0.3-0.3c0-7.2,0-12.7,0-19.9c4.3,0,9.1,0,13.4,0c0.1,0,0.2,0,0.2-0.1c0,0,0,0,0,0c0,0,0,0,0,0
			c0-0.1,0.1-0.1,0.1-0.2C29.5,4.7,29.5,5,29.5,4.4z"/>
		<path class="st1" d="M14.6,26.5c-0.5,0-0.8-0.4-0.8-0.8c0-3.6,0-6.8,0-10c0-3,0-6.1,0-9.5c-2,0-4.2,0-6.2-0.1C5.3,6,3,6,0.9,6
			C0.4,6,0,5.6,0,5.2C0,5,0,4.9,0,4.9c0-0.1,0-0.2,0-0.5c0-0.5,0.4-0.8,0.8-0.8h28.3c0.5,0,0.8,0.4,0.8,0.8v0.9
			c0,0.2-0.1,0.4-0.2,0.5c0,0,0,0,0,0c0,0,0,0-0.1,0.1c-0.1,0.1-0.3,0.2-0.5,0.2H16.2v19.4c0,0.5-0.4,0.8-0.8,0.8
			c-0.1,0-0.2,0-0.2,0C15.1,26.4,14.9,26.5,14.6,26.5z M1,5c2.1,0,4.4,0,6.6,0.1c2.3,0,4.6,0.1,6.7,0.1c0.3,0,0.5,0.2,0.5,0.5
			c0,3.6,0,6.8,0,10c0,3.1,0,6.3,0,9.8c0,0,0,0,0.1,0c0.1,0,0.2,0,0.4,0V5.6c0-0.3,0.2-0.5,0.5-0.5H29V4.5H1c0,0.1,0,0.1,0,0.1
			C1,4.8,1,4.8,1,5z"/>
	</g>
	<g>
		<path class="st1" d="M23.7,20.2H19c-0.3,0-0.6-0.2-0.6-0.6v-0.2c0-0.3,0.2-0.6,0.6-0.6h4.7c0.3,0,0.6,0.2,0.6,0.6v0.2
			C24.2,20,24,20.2,23.7,20.2z"/>
		<path class="st1" d="M23.8,20.7h-4.9c-0.5,0-1-0.4-1-1v-0.4c0-0.5,0.4-1,1-1h4.9c0.5,0,1,0.4,1,1v0.4
			C24.7,20.3,24.3,20.7,23.8,20.7z M18.9,19.7h4.8v-0.3h-4.8V19.7z"/>
	</g>
	<g>
		<path class="st1" d="M27.8,15.2H19c-0.3,0-0.5-0.3-0.5-0.6v-0.1c0-0.3,0.2-0.6,0.5-0.6h8.8c0.3,0,0.5,0.3,0.5,0.6v0.1
			C28.3,15,28.1,15.2,27.8,15.2z"/>
		<path class="st1" d="M27.8,15.7H19c-0.6,0-1-0.5-1-1.1v-0.1c0-0.6,0.5-1.1,1-1.1h8.8c0.6,0,1,0.5,1,1.1v0.1
			C28.8,15.2,28.3,15.7,27.8,15.7z M27.8,14.4l-8.8,0c0,0,0,0,0,0.1v0.1c0,0,0,0.1,0,0.1l8.8,0c0,0,0,0,0-0.1L27.8,14.4
			C27.8,14.5,27.8,14.4,27.8,14.4z"/>
	</g>
	<g>
		<path class="st1" d="M10.6,15.3H1.9c-0.3,0-0.6-0.3-0.6-0.6v-0.2c0-0.3,0.3-0.6,0.6-0.6h8.7c0.3,0,0.6,0.3,0.6,0.6v0.2
			C11.2,15,11,15.3,10.6,15.3z"/>
		<path class="st1" d="M10.7,15.8H1.8c-0.5,0-1-0.4-1-1v-0.4c0-0.5,0.4-1,1-1h8.9c0.5,0,1,0.4,1,1v0.4
			C11.7,15.4,11.3,15.8,10.7,15.8z M1.9,14.8h8.9v-0.3H1.9V14.8z"/>
	</g>
	<g>
		<path class="st1" d="M10.7,10.3H5.7c-0.3,0-0.6-0.2-0.6-0.6V9.6C5.2,9.3,5.4,9,5.7,9h4.9c0.3,0,0.6,0.2,0.6,0.6v0.2
			C11.2,10,11,10.3,10.7,10.3z"/>
		<path class="st1" d="M10.7,10.8H5.6c-0.5,0-1-0.4-1-1V9.5c0-0.5,0.4-1,1-1h5.1c0.5,0,1,0.4,1,1v0.4C11.7,10.3,11.3,10.8,10.7,10.8
			z M5.7,9.8h5V9.5h-5V9.8z"/>
	</g>
</g>
</svg>
