<?xml version="1.0" encoding="utf-8"?>
<!-- Generator: Adobe Illustrator 21.0.0, SVG Export Plug-In . SVG Version: 6.00 Build 0)  -->
<svg version="1.1" id="Capa_1" xmlns="http://www.w3.org/2000/svg" xmlns:xlink="http://www.w3.org/1999/xlink" x="0px" y="0px"
	 viewBox="0 0 24 24" style="enable-background:new 0 0 24 24;" xml:space="preserve">
<style type="text/css">
	.st0{fill:#5F6368;}
	.st1{fill:#0A858D;}
	.st2{fill:#626262;}
</style>
<g>
	<g>
		<path class="st1" d="M23.6,3.5c0-0.1-0.1-0.3-0.3-0.3c-7.6,0-15.1,0-22.7,0c-0.1,0-0.3,0.1-0.3,0.3c0,0.5,0,0.1,0,0.6
			c0,0.1,0.1,0.3,0.3,0.3c3.4,0,7.3,0.1,10.8,0.1c0,5.8,0,10.2,0,16c0,0.1,0.1,0.3,0.3,0.3c0.5,0,0.1,0,0.6,0c0.1,0,0.3-0.1,0.3-0.3
			c0-5.8,0-10.1,0-15.9c3.4,0,7.3,0,10.7,0c0.1,0,0.1,0,0.2-0.1c0,0,0,0,0,0c0,0,0,0,0,0c0,0,0.1-0.1,0.1-0.2
			C23.6,3.8,23.6,4,23.6,3.5z"/>
		<path class="st1" d="M11.7,21.2c-0.4,0-0.7-0.3-0.7-0.7c0-2.9,0-5.4,0-8c0-2.4,0-4.9,0-7.6c-1.6,0-3.3,0-5,0c-1.8,0-3.7,0-5.4,0
			C0.3,4.8,0,4.5,0,4.1C0,4,0,3.9,0,3.9c0-0.1,0-0.2,0-0.4c0-0.4,0.3-0.7,0.7-0.7h22.7c0.4,0,0.7,0.3,0.7,0.7v0.7
			c0,0.2-0.1,0.3-0.2,0.4c0,0,0,0,0,0c0,0,0,0-0.1,0.1c-0.1,0.1-0.3,0.2-0.4,0.2H13v15.5c0,0.4-0.3,0.7-0.7,0.7c-0.1,0-0.1,0-0.2,0
			C12,21.2,11.9,21.2,11.7,21.2z M0.8,4c1.7,0,3.5,0,5.3,0.1c1.8,0,3.7,0,5.4,0c0.2,0,0.4,0.2,0.4,0.4c0,2.9,0,5.4,0,8
			c0,2.5,0,5,0,7.9c0,0,0,0,0.1,0c0.1,0,0.2,0,0.3,0V4.5c0-0.2,0.2-0.4,0.4-0.4h10.6V3.6H0.8c0,0.1,0,0.1,0,0.1
			C0.8,3.8,0.8,3.9,0.8,4z"/>
	</g>
	<g>
		<path class="st1" d="M18.9,16.2h-3.6c-0.3,0-0.5-0.2-0.5-0.5v0c0-0.3,0.2-0.5,0.5-0.5h3.6c0.3,0,0.5,0.2,0.5,0.5v0
			C19.4,15.9,19.2,16.2,18.9,16.2z"/>
		<path class="st1" d="M19,16.6h-3.9c-0.4,0-0.8-0.3-0.8-0.8v-0.3c0-0.4,0.3-0.8,0.8-0.8H19c0.4,0,0.8,0.3,0.8,0.8v0.3
			C19.8,16.2,19.4,16.6,19,16.6z M15.1,15.8H19v-0.2h-3.8V15.8z"/>
	</g>
	<g>
		<path class="st1" d="M22.2,12.2h-7c-0.2,0-0.4-0.2-0.4-0.5v-0.1c0-0.3,0.2-0.5,0.4-0.5h7c0.2,0,0.4,0.2,0.4,0.5v0.1
			C22.6,12,22.4,12.2,22.2,12.2z"/>
		<path class="st1" d="M22.2,12.6h-7c-0.5,0-0.8-0.4-0.8-0.9v-0.1c0-0.5,0.4-0.9,0.8-0.9h7c0.5,0,0.8,0.4,0.8,0.9v0.1
			C23,12.2,22.7,12.6,22.2,12.6z M22.2,11.6l-7,0c0,0,0,0,0,0.1v0.1c0,0,0,0.1,0,0.1l7,0c0,0,0,0,0-0.1L22.2,11.6
			C22.2,11.6,22.2,11.6,22.2,11.6z"/>
	</g>
	<g>
		<path class="st1" d="M8.4,12.2H1.6c-0.3,0-0.5-0.2-0.5-0.5v0c0-0.3,0.2-0.5,0.5-0.5h6.8c0.3,0,0.5,0.2,0.5,0.5v0
			C9,12,8.7,12.2,8.4,12.2z"/>
		<path class="st1" d="M8.6,12.6H1.4c-0.4,0-0.8-0.3-0.8-0.8v-0.3c0-0.4,0.3-0.8,0.8-0.8h7.2c0.4,0,0.8,0.3,0.8,0.8v0.3
			C9.4,12.3,9,12.6,8.6,12.6z M1.5,11.8h7.1v-0.2H1.5V11.8z"/>
	</g>
	<g>
		<path class="st1" d="M8.5,8.2H4.6C4.4,8.2,4.1,8,4.1,7.7v0c0-0.3,0.2-0.5,0.5-0.5h3.8C8.7,7.2,9,7.4,9,7.7v0C9,8,8.7,8.2,8.5,8.2z
			"/>
		<path class="st1" d="M8.6,8.6H4.5c-0.4,0-0.8-0.3-0.8-0.8V7.6c0-0.4,0.3-0.8,0.8-0.8h4.1c0.4,0,0.8,0.3,0.8,0.8v0.3
			C9.4,8.3,9,8.6,8.6,8.6z M4.5,7.8h4V7.6h-4V7.8z"/>
	</g>
</g>
</svg>
