<?xml version="1.0" encoding="utf-8"?>
<!-- Generator: Adobe Illustrator 21.0.0, SVG Export Plug-In . SVG Version: 6.00 Build 0)  -->
<svg version="1.1" id="Capa_1" xmlns="http://www.w3.org/2000/svg" xmlns:xlink="http://www.w3.org/1999/xlink" x="0px" y="0px"
	 viewBox="0 0 24 24" style="enable-background:new 0 0 24 24;" xml:space="preserve">
<style type="text/css">
	.st0{fill:#5F6368;}
	.st1{fill:#0A858D;}
	.st2{fill:#626262;}
</style>
<g>
	<path class="st0" d="M17.9,22.2h-0.5c-0.5,0-0.9-0.2-1.3-0.5H2.5v-1.2c0-2.2,1.8-4,4-4c0.7,0,1.8,0.8,4.2,0.8
		c2.4,0,3.5-0.8,4.2-0.8c1.2,0,2.2,0.5,3,1.3v-0.3c0-0.8,0.4-1.5,1.1-1.8c-1.1-0.9-2.5-1.5-4.1-1.5c-1.3,0-2,0.8-4.2,0.8
		s-2.8-0.8-4.2-0.8c-3.5,0-6.3,2.8-6.3,6.3v1.2c0,1.2,1,2.3,2.3,2.3h15.9c-0.3-0.4-0.5-0.8-0.5-1.3V22.2z"/>
	<path class="st0" d="M10.7,13.5c3.7,0,6.8-3,6.8-6.7c0-3.7-3-6.8-6.8-6.8S4,3,4,6.8C4,10.5,7,13.5,10.7,13.5z M10.7,2.3
		c2.5,0,4.5,2,4.5,4.5c0,2.5-2,4.5-4.5,4.5s-4.5-2-4.5-4.5C6.2,4.3,8.2,2.3,10.7,2.3z"/>
	<path class="st0" d="M22.6,18.9h-1.1c-0.1-0.3-0.1-0.5-0.2-0.7v-0.6c0-0.6-0.4-1.1-1-1.2c-0.1,0-0.1,0-0.2,0c-0.1,0-0.2,0-0.4,0.1
		c-0.5,0.2-0.9,0.6-0.9,1.2v0.7v0.6h-0.1h-1.2c-0.7,0-1.2,0.6-1.2,1.2s0.6,1.2,1.2,1.2h1.3v0.2v0.2v0.9c0,0.6,0.4,1,0.9,1.2
		c0,0,0,0,0,0c0.1,0,0.2,0.1,0.3,0.1c0.6,0,1.1-0.4,1.2-1c0-0.1,0-0.1,0-0.2v-1.3h0.4h0.9c0.7,0,1.2-0.6,1.2-1.2
		S23.2,18.9,22.6,18.9z"/>
</g>
</svg>
