<?xml version="1.0" encoding="utf-8"?>
<!-- Generator: Adobe Illustrator 21.0.0, SVG Export Plug-In . SVG Version: 6.00 Build 0)  -->
<svg version="1.1" id="Capa_1" xmlns="http://www.w3.org/2000/svg" xmlns:xlink="http://www.w3.org/1999/xlink" x="0px" y="0px"
	 viewBox="0 0 30 30" style="enable-background:new 0 0 30 30;" xml:space="preserve">
<style type="text/css">
	.st0{fill:#5F6368;}
	.st1{fill:#0A858D;}
	.st2{fill:#626262;}
	.st3{fill:#424242;}
</style>
<g>
	<g>
		<path class="st0" d="M10.6,22.5H4.9c-0.2,0-0.4-0.2-0.4-0.4v-0.1c0-0.2,0.2-0.4,0.4-0.4h5.6c0.2,0,0.4,0.2,0.4,0.4v0.1
			C11,22.3,10.8,22.5,10.6,22.5z"/>
		<path class="st0" d="M10.5,22.8H5c-0.4,0-0.8-0.3-0.8-0.8s0.3-0.8,0.8-0.8h5.5c0.4,0,0.8,0.3,0.8,0.8S10.9,22.8,10.5,22.8z
			 M5,21.8c-0.1,0-0.2,0.1-0.2,0.2s0.1,0.2,0.2,0.2h5.5c0.1,0,0.2-0.1,0.2-0.2s-0.1-0.2-0.2-0.2H5z"/>
	</g>
	<g>
		<g>
			<g>
				<path class="st0" d="M10.6,12.9H4.9c-0.2,0-0.4-0.2-0.4-0.4v-0.1c0-0.2,0.2-0.4,0.4-0.4h5.6c0.2,0,0.4,0.2,0.4,0.4v0.1
					C11,12.7,10.8,12.9,10.6,12.9z"/>
			</g>
			<g>
				<path class="st0" d="M10.5,13.2H5c-0.4,0-0.8-0.3-0.8-0.8c0-0.4,0.3-0.8,0.8-0.8h5.5c0.4,0,0.8,0.3,0.8,0.8
					C11.2,12.8,10.9,13.2,10.5,13.2z M5,12.2c-0.1,0-0.2,0.1-0.2,0.2c0,0.1,0.1,0.2,0.2,0.2h5.5c0.1,0,0.2-0.1,0.2-0.2
					c0-0.1-0.1-0.2-0.2-0.2H5z"/>
			</g>
		</g>
		<g>
			<g>
				<path class="st0" d="M8.4,15H5c-0.2,0-0.4-0.2-0.4-0.4v-0.1C4.5,14.2,4.7,14,5,14h3.5c0.2,0,0.4,0.2,0.4,0.4v0.1
					C8.9,14.8,8.7,15,8.4,15z"/>
			</g>
			<g>
				<path class="st0" d="M8.4,15.3H5c-0.4,0-0.8-0.3-0.8-0.8c0-0.4,0.3-0.8,0.8-0.8h3.4c0.4,0,0.8,0.3,0.8,0.8
					C9.1,15,8.8,15.3,8.4,15.3z M5,14.3c-0.1,0-0.2,0.1-0.2,0.2c0,0.2,0.1,0.3,0.2,0.3h3.4c0.1,0,0.2-0.1,0.2-0.2
					c0-0.2-0.1-0.3-0.2-0.3H5z"/>
			</g>
		</g>
		<g>
			<g>
				<path class="st0" d="M10.6,17.7H4.9c-0.2,0-0.4-0.2-0.4-0.4v-0.1c0-0.2,0.2-0.4,0.4-0.4h5.6c0.2,0,0.4,0.2,0.4,0.4v0.1
					C11,17.5,10.8,17.7,10.6,17.7z"/>
			</g>
			<g>
				<path class="st0" d="M10.5,18H5c-0.4,0-0.8-0.3-0.8-0.8c0-0.4,0.3-0.8,0.8-0.8h5.5c0.4,0,0.8,0.3,0.8,0.8
					C11.2,17.6,10.9,18,10.5,18z M5,17c-0.1,0-0.2,0.1-0.2,0.2s0.1,0.2,0.2,0.2h5.5c0.1,0,0.2-0.1,0.2-0.2S10.6,17,10.5,17H5z"/>
			</g>
		</g>
		<g>
			<g>
				<path class="st0" d="M8.4,19.8H5c-0.2,0-0.4-0.2-0.4-0.4v-0.1c0-0.2,0.2-0.4,0.4-0.4h3.5c0.2,0,0.4,0.2,0.4,0.4v0.1
					C8.9,19.6,8.7,19.8,8.4,19.8z"/>
			</g>
			<g>
				<path class="st0" d="M8.4,20.1H5c-0.4,0-0.8-0.3-0.8-0.8c0-0.4,0.3-0.8,0.8-0.8h3.4c0.4,0,0.8,0.3,0.8,0.8
					C9.1,19.8,8.8,20.1,8.4,20.1z M5,19.1c-0.1,0-0.2,0.1-0.2,0.2c0,0.2,0.1,0.3,0.2,0.3h3.4c0.1,0,0.2-0.1,0.2-0.2
					c0-0.2-0.1-0.3-0.2-0.3H5z"/>
			</g>
		</g>
		<g>
			<g>
				<g>
					<path class="st0" d="M17.3,21.9v3.8H2.5V10.9h5.3c0.7,0,1.2-0.5,1.2-1.2V4.3h8.2v3.3c0.6-0.2,1.2-0.2,1.9-0.2
						c0.2,0,0.4,0,0.6,0V4.3c0-1.4-1.1-2.5-2.5-2.5H6.9c-0.7,0-1.3,0.3-1.7,0.7L0.8,6.9C0.3,7.3,0.1,8,0.1,8.6v17.1
						c0,1.4,1.1,2.5,2.5,2.5h14.8c1.4,0,2.5-1.1,2.5-2.5v-3.6c-0.2,0-0.4,0-0.6,0C18.5,22.1,17.9,22,17.3,21.9z M6.7,4.5v3.9H2.7
						L6.7,4.5z"/>
				</g>
			</g>
			<g>
				<g>
					<path class="st0" d="M14.7,14.8c0-1.8,1.1-3.4,2.7-4.1v-3c-3.1,0.8-5.5,3.7-5.5,7.1c0,3.4,2.3,6.3,5.5,7.1v-3
						C15.8,18.2,14.7,16.6,14.7,14.8z"/>
				</g>
			</g>
			<g>
				<g>
					<path class="st0" d="M29.7,23.1l-3.5-3.5c-0.2-0.2-0.4-0.2-0.6-0.2H25c1-1.2,1.6-2.8,1.6-4.5c0-3.9-3-7-6.7-7.3v2.8
						c2.2,0.3,3.9,2.2,3.9,4.5c0,2.3-1.7,4.2-3.9,4.5v2.9c1.5-0.1,2.8-0.7,3.9-1.5v0.6c0,0.2,0.1,0.4,0.2,0.6l3.5,3.5
						c0.3,0.3,0.9,0.3,1.2,0l1-1C30,23.9,30,23.4,29.7,23.1z"/>
				</g>
			</g>
			<g>
				<g>
					<path class="st0" d="M19.2,19.3c-0.7,0-1.3-0.1-1.9-0.4v3c0.6,0.2,1.2,0.2,1.9,0.2c0.2,0,0.4,0,0.6,0v-2.9
						C19.6,19.3,19.4,19.3,19.2,19.3z"/>
				</g>
			</g>
			<g>
				<g>
					<path class="st0" d="M17.3,7.7v3c0.6-0.3,1.2-0.4,1.9-0.4c0.2,0,0.4,0,0.6,0V7.4c-0.2,0-0.4,0-0.6,0
						C18.5,7.4,17.9,7.5,17.3,7.7z"/>
				</g>
			</g>
		</g>
	</g>
</g>
</svg>
