<?xml version="1.0" encoding="utf-8"?>
<!-- Generator: Adobe Illustrator 21.0.0, SVG Export Plug-In . SVG Version: 6.00 Build 0)  -->
<svg version="1.1" id="Capa_1" xmlns="http://www.w3.org/2000/svg" xmlns:xlink="http://www.w3.org/1999/xlink" x="0px" y="0px"
	 viewBox="0 0 24 24" style="enable-background:new 0 0 24 24;" xml:space="preserve">
<style type="text/css">
	.st0{fill:#5F6368;}
	.st1{fill:#0A858D;}
	.st2{fill:#626262;}
</style>
<g>
	<g>
		<path class="st0" d="M8.4,18H4c-0.2,0-0.4-0.2-0.4-0.4v0c0-0.2,0.2-0.4,0.4-0.4h4.4c0.2,0,0.4,0.2,0.4,0.4v0
			C8.8,17.8,8.6,18,8.4,18z"/>
		<path class="st0" d="M8.4,18.2H4c-0.3,0-0.6-0.3-0.6-0.6S3.7,17,4,17h4.4C8.7,17,9,17.3,9,17.6S8.7,18.2,8.4,18.2z M4,17.4
			c-0.1,0-0.2,0.1-0.2,0.2s0.1,0.2,0.2,0.2h4.4c0.1,0,0.2-0.1,0.2-0.2s-0.1-0.2-0.2-0.2H4z"/>
	</g>
	<g>
		<g>
			<g>
				<path class="st0" d="M8.4,10.3H4c-0.2,0-0.4-0.2-0.4-0.4v0c0-0.2,0.2-0.4,0.4-0.4h4.4c0.2,0,0.4,0.2,0.4,0.4v0
					C8.8,10.2,8.6,10.3,8.4,10.3z"/>
			</g>
			<g>
				<path class="st0" d="M8.4,10.5H4c-0.3,0-0.6-0.3-0.6-0.6S3.7,9.3,4,9.3h4.4C8.7,9.3,9,9.6,9,9.9S8.7,10.5,8.4,10.5z M4,9.8
					c-0.1,0-0.2,0.1-0.2,0.2s0.1,0.2,0.2,0.2h4.4c0.1,0,0.2-0.1,0.2-0.2S8.5,9.8,8.4,9.8H4z"/>
			</g>
		</g>
		<g>
			<g>
				<path class="st0" d="M6.7,12H4c-0.2,0-0.4-0.2-0.4-0.4v0c0-0.2,0.2-0.4,0.4-0.4h2.7c0.2,0,0.4,0.2,0.4,0.4v0
					C7.1,11.9,6.9,12,6.7,12z"/>
			</g>
			<g>
				<path class="st0" d="M6.7,12.2H4c-0.3,0-0.6-0.3-0.6-0.6C3.4,11.3,3.7,11,4,11h2.7c0.3,0,0.6,0.3,0.6,0.6
					C7.3,12,7,12.2,6.7,12.2z M4,11.4c-0.1,0-0.2,0.1-0.2,0.2c0,0.1,0.1,0.2,0.2,0.2h2.7c0.1,0,0.2-0.1,0.2-0.2
					c0-0.1-0.1-0.2-0.2-0.2H4z"/>
			</g>
		</g>
		<g>
			<g>
				<path class="st0" d="M8.4,14.2H4c-0.2,0-0.4-0.2-0.4-0.4v0c0-0.2,0.2-0.4,0.4-0.4h4.4c0.2,0,0.4,0.2,0.4,0.4v0
					C8.8,14,8.6,14.2,8.4,14.2z"/>
			</g>
			<g>
				<path class="st0" d="M8.4,14.4H4c-0.3,0-0.6-0.3-0.6-0.6c0-0.3,0.3-0.6,0.6-0.6h4.4c0.3,0,0.6,0.3,0.6,0.6
					C9,14.1,8.7,14.4,8.4,14.4z M4,13.6c-0.1,0-0.2,0.1-0.2,0.2c0,0.1,0.1,0.2,0.2,0.2h4.4c0.1,0,0.2-0.1,0.2-0.2
					c0-0.1-0.1-0.2-0.2-0.2H4z"/>
			</g>
		</g>
		<g>
			<g>
				<path class="st0" d="M6.7,15.9H4c-0.2,0-0.4-0.2-0.4-0.4v0c0-0.2,0.2-0.4,0.4-0.4h2.7c0.2,0,0.4,0.2,0.4,0.4v0
					C7.1,15.7,6.9,15.9,6.7,15.9z"/>
			</g>
			<g>
				<path class="st0" d="M6.7,16.1H4c-0.3,0-0.6-0.3-0.6-0.6c0-0.4,0.3-0.6,0.6-0.6h2.7c0.3,0,0.6,0.3,0.6,0.6
					C7.3,15.8,7,16.1,6.7,16.1z M4,15.3c-0.1,0-0.2,0.1-0.2,0.2c0,0.1,0.1,0.2,0.2,0.2h2.7c0.1,0,0.2-0.1,0.2-0.2
					c0-0.1-0.1-0.2-0.2-0.2H4z"/>
			</g>
		</g>
		<g>
			<g>
				<g>
					<path class="st0" d="M13.9,17.5v3H2.1V8.7h4.3c0.5,0,1-0.4,1-1V3.5h6.6v2.7c0.5-0.1,1-0.2,1.5-0.2c0.2,0,0.3,0,0.5,0V3.5
						c0-1.1-0.9-2-2-2H5.5c-0.5,0-1,0.2-1.4,0.6L0.7,5.5C0.3,5.9,0.1,6.4,0.1,6.9v13.6c0,1.1,0.9,2,2,2h11.8c1.1,0,2-0.9,2-2v-2.9
						c-0.2,0-0.3,0-0.5,0C14.8,17.7,14.3,17.6,13.9,17.5z M5.3,3.6v3.1H2.2L5.3,3.6z"/>
				</g>
			</g>
			<g>
				<g>
					<path class="st0" d="M11.7,11.8c0-1.5,0.9-2.7,2.1-3.3V6.1c-2.5,0.7-4.4,3-4.4,5.7c0,2.7,1.9,5,4.4,5.7v-2.4
						C12.6,14.5,11.7,13.3,11.7,11.8z"/>
				</g>
			</g>
			<g>
				<g>
					<path class="st0" d="M23.7,18.4l-2.8-2.8c-0.1-0.1-0.3-0.2-0.5-0.2H20c0.8-1,1.2-2.3,1.2-3.6c0-3.1-2.4-5.6-5.4-5.9v2.3
						C17.6,8.5,19,10,19,11.8c0,1.8-1.4,3.3-3.1,3.6v2.3c1.2-0.1,2.3-0.5,3.1-1.2v0.5c0,0.2,0.1,0.4,0.2,0.5l2.8,2.8
						c0.3,0.3,0.7,0.3,1,0l0.8-0.8C24,19.1,24,18.7,23.7,18.4z"/>
				</g>
			</g>
			<g>
				<g>
					<path class="st0" d="M15.4,15.4c-0.5,0-1-0.1-1.5-0.3v2.4c0.5,0.1,1,0.2,1.5,0.2c0.2,0,0.3,0,0.5,0v-2.3
						C15.7,15.4,15.5,15.4,15.4,15.4z"/>
				</g>
			</g>
			<g>
				<g>
					<path class="st0" d="M13.9,6.1v2.4c0.5-0.2,1-0.3,1.5-0.3c0.2,0,0.3,0,0.5,0V6c-0.2,0-0.3,0-0.5,0C14.8,5.9,14.3,6,13.9,6.1z"
						/>
				</g>
			</g>
		</g>
	</g>
</g>
</svg>
