<?xml version="1.0" encoding="utf-8"?>
<!-- Generator: Adobe Illustrator 21.0.0, SVG Export Plug-In . SVG Version: 6.00 Build 0)  -->
<svg version="1.1" id="Capa_1" xmlns="http://www.w3.org/2000/svg" xmlns:xlink="http://www.w3.org/1999/xlink" x="0px" y="0px"
	 viewBox="0 0 24 24" style="enable-background:new 0 0 24 24;" xml:space="preserve">
<style type="text/css">
	.st0{fill:#5F6368;}
	.st1{fill:#0A858D;}
	.st2{fill:#626262;}
</style>
<g>
	<path class="st1" d="M19.9,17.3l-1.6-1.2v-3.5c0-0.1-0.1-0.2-0.1-0.3c-0.1-0.1-0.3-0.2-0.5-0.2h-0.8c-0.3,0-0.6,0.3-0.6,0.6v4.2
		c0,0.2,0.1,0.4,0.2,0.5l1.6,1.2l0.6,0.4l0,0C18.9,19,19,19,19.1,19c0.2,0,0.4-0.1,0.5-0.2l0.5-0.7c0.1-0.1,0.1-0.3,0.1-0.4
		C20.1,17.5,20.1,17.4,19.9,17.3z"/>
	<g>
		<path class="st1" d="M11.1,20.3C11,20.2,11,20,10.9,19.9H2.2c-0.1,0-0.2-0.1-0.2-0.2V7.6h14.3v1.3c0.4-0.1,0.7-0.1,1.1-0.1
			c0.3,0,0.6,0,0.9,0.1V5.6c0-1.1-0.9-1.9-1.9-1.9h-1.9V1.6c0-0.3-0.2-0.5-0.5-0.5h-1.6c-0.3,0-0.5,0.2-0.5,0.5v2.1H6.5V1.6
			c0-0.3-0.2-0.5-0.5-0.5H4.4c-0.3,0-0.5,0.2-0.5,0.5v2.1H1.9C0.9,3.7,0,4.5,0,5.6v14.3c0,1.1,0.9,1.9,1.9,1.9h10.6
			C12,21.4,11.5,20.9,11.1,20.3z"/>
		<path class="st1" d="M10.6,16.2c0,1.4,0.4,2.6,1.1,3.7c0.5,0.8,1.2,1.4,2,1.9c1,0.7,2.3,1.1,3.6,1.1c3.7,0,6.7-3,6.7-6.7
			c0-3.4-2.5-6.2-5.8-6.6c-0.3,0-0.6-0.1-0.9-0.1c-0.4,0-0.7,0-1.1,0.1C13.1,10.2,10.6,12.9,10.6,16.2z M16.2,11.5
			c0.3-0.1,0.7-0.1,1.1-0.1c0.3,0,0.6,0,0.9,0.1c2.3,0.4,4,2.4,4,4.8c0,2.6-2,4.7-4.5,4.9c-0.1,0-0.3,0-0.4,0
			c-1.2,0-2.4-0.5-3.2-1.2c-1-0.9-1.7-2.2-1.7-3.7C12.4,13.9,14,11.9,16.2,11.5z"/>
	</g>
</g>
</svg>
