<?xml version="1.0" encoding="utf-8"?>
<!-- Generator: Adobe Illustrator 21.0.0, SVG Export Plug-In . SVG Version: 6.00 Build 0)  -->
<svg version="1.1" id="Capa_1" xmlns="http://www.w3.org/2000/svg" xmlns:xlink="http://www.w3.org/1999/xlink" x="0px" y="0px"
	 viewBox="0 0 24 24" style="enable-background:new 0 0 24 24;" xml:space="preserve">
<style type="text/css">
	.st0{fill:#5F6368;}
	.st1{fill:#0A858D;}
	.st2{fill:#626262;}
</style>
<g>
	<g>
		<g>
			<g>
				<path class="st0" d="M10.2,19l0.1-5.3L5.8,9.6V6l12.4,0.1v3.1l-4.6,4.4l0.1,3.7L10.2,19z M6.5,9.3l4.5,4.1l-0.1,4.5l2.1-1
					l-0.1-3.5L17.5,9V6.8l-11-0.1V9.3z"/>
				<path class="st0" d="M10.2,19.5c-0.1,0-0.2,0-0.3-0.1c-0.2-0.1-0.2-0.3-0.2-0.5l0.1-5.1L5.5,10C5.4,9.9,5.3,9.7,5.3,9.6V6
					c0-0.1,0.1-0.3,0.2-0.4c0.1-0.1,0.2-0.2,0.4-0.2h0l12.4,0.1c0.3,0,0.5,0.2,0.5,0.5v3.1c0,0.1-0.1,0.3-0.2,0.4l-4.4,4.3l0.1,3.4
					c0,0.2-0.1,0.4-0.3,0.5l-3.4,1.7C10.4,19.5,10.3,19.5,10.2,19.5z M7,9.1l4.3,3.9c0.1,0.1,0.2,0.2,0.2,0.4l0,3.7l1-0.5l-0.1-3.2
					c0-0.1,0.1-0.3,0.2-0.4L17,8.7V7.3L7,7.3V9.1z"/>
			</g>
		</g>
	</g>
	<g>
		<path class="st0" d="M9.7,5.1c-0.2,0-0.4,0-0.6-0.1C8.7,4.8,8.4,4.5,8.3,4.1C8.2,3.7,8.2,3.3,8.4,3c0.3-0.7,1.2-1,1.9-0.7
			c0.7,0.3,1,1.2,0.7,1.9v0C10.7,4.7,10.2,5.1,9.7,5.1z M9.7,2.9C9.4,2.9,9.1,3,9,3.3C8.9,3.5,8.9,3.7,9,3.9C9,4,9.2,4.2,9.4,4.3
			c0.4,0.2,0.8,0,1-0.4c0.2-0.4,0-0.8-0.4-1C9.9,2.9,9.8,2.9,9.7,2.9z M10.7,4.1L10.7,4.1L10.7,4.1z"/>
	</g>
	<g>
		<path class="st0" d="M13.2,5.2c-0.2,0-0.4,0-0.6-0.1c-0.4-0.2-0.6-0.5-0.8-0.8c-0.1-0.4-0.1-0.8,0.1-1.1c0.2-0.4,0.5-0.6,0.8-0.8
			c0.4-0.1,0.8-0.1,1.1,0.1c0.4,0.2,0.6,0.5,0.8,0.8c0.1,0.4,0.1,0.8-0.1,1.1l0,0c-0.2,0.4-0.5,0.6-0.8,0.8
			C13.5,5.1,13.4,5.2,13.2,5.2z M13.2,3c-0.1,0-0.2,0-0.3,0c-0.2,0.1-0.3,0.2-0.4,0.4c-0.1,0.2-0.1,0.4,0,0.6
			c0.1,0.2,0.2,0.3,0.4,0.4c0.2,0.1,0.4,0.1,0.6,0c0.2-0.1,0.3-0.2,0.4-0.4v0c0.1-0.2,0.1-0.4,0-0.6c-0.1-0.2-0.2-0.3-0.4-0.4
			C13.4,3,13.3,3,13.2,3z"/>
	</g>
	<g>
		<path class="st0" d="M15.2,2.5c-0.2,0-0.4,0-0.5-0.1C14.3,2.2,14.1,2,14,1.7c-0.1-0.3-0.1-0.7,0-1c0.1-0.3,0.4-0.5,0.7-0.6
			c0.3-0.1,0.7-0.1,1,0c0.6,0.3,0.9,1,0.6,1.7v0c-0.1,0.3-0.4,0.5-0.7,0.6C15.5,2.5,15.3,2.5,15.2,2.5z M15.2,0.7
			c-0.1,0-0.1,0-0.2,0c-0.1,0-0.2,0.2-0.3,0.3c-0.1,0.1-0.1,0.3,0,0.4c0,0.1,0.1,0.2,0.3,0.3c0.1,0.1,0.3,0.1,0.4,0
			c0.1,0,0.2-0.1,0.3-0.3c0.1-0.3,0-0.6-0.3-0.7C15.3,0.7,15.2,0.7,15.2,0.7z M16,1.6L16,1.6L16,1.6z"/>
	</g>
	<g>
		<path class="st0" d="M12.1,21.3c-0.2,0-0.3,0-0.5-0.1c-0.3-0.1-0.5-0.4-0.6-0.7c-0.1-0.3-0.1-0.6,0-0.9c0.1-0.3,0.4-0.5,0.7-0.6
			c0.3-0.1,0.6-0.1,0.9,0c0.3,0.1,0.5,0.4,0.6,0.7c0.1,0.3,0.1,0.6,0,0.9l0,0C12.9,21.1,12.5,21.3,12.1,21.3z M12.1,19.7
			c-0.1,0-0.1,0-0.2,0c-0.1,0-0.2,0.1-0.3,0.2c-0.1,0.1-0.1,0.2,0,0.3c0,0.1,0.1,0.2,0.2,0.3c0.2,0.1,0.5,0,0.6-0.2
			c0.1-0.1,0.1-0.2,0-0.3c0-0.1-0.1-0.2-0.2-0.3C12.2,19.7,12.1,19.7,12.1,19.7z M12.8,20.5L12.8,20.5L12.8,20.5z"/>
	</g>
	<g>
		<path class="st0" d="M12.1,24c-0.2,0-0.3,0-0.5-0.1c-0.3-0.1-0.5-0.4-0.6-0.7c-0.1-0.3-0.1-0.6,0-0.9c0.1-0.3,0.4-0.5,0.7-0.6
			c0.3-0.1,0.6-0.1,0.9,0c0.3,0.1,0.5,0.4,0.6,0.7c0.1,0.3,0.1,0.6,0,0.9l0,0C12.9,23.8,12.5,24,12.1,24z M12.1,22.4
			c-0.1,0-0.1,0-0.2,0c-0.1,0-0.2,0.1-0.3,0.2c-0.1,0.1-0.1,0.2,0,0.3c0,0.1,0.1,0.2,0.2,0.3c0.2,0.1,0.5,0,0.6-0.2
			c0.1-0.1,0.1-0.2,0-0.3c0-0.1-0.1-0.2-0.2-0.3C12.2,22.4,12.1,22.4,12.1,22.4z M12.8,23.2L12.8,23.2L12.8,23.2z"/>
	</g>
	<g>
		<path class="st0" d="M11.7,2.5c-0.2,0-0.4,0-0.5-0.1c-0.3-0.1-0.5-0.4-0.6-0.7c-0.1-0.3-0.1-0.7,0-1c0.1-0.3,0.4-0.5,0.7-0.6
			c0.3-0.1,0.7-0.1,1,0c0.3,0.1,0.5,0.4,0.6,0.7c0.1,0.3,0.1,0.7,0,1v0C12.6,2.2,12.2,2.5,11.7,2.5z M11.7,0.7c-0.1,0-0.1,0-0.2,0
			c-0.1,0-0.2,0.2-0.3,0.3c-0.1,0.1-0.1,0.3,0,0.4s0.1,0.2,0.3,0.3c0.3,0.1,0.6,0,0.7-0.3c0.1-0.1,0.1-0.3,0-0.4s-0.2-0.2-0.3-0.3
			C11.9,0.7,11.8,0.7,11.7,0.7z M12.5,1.6L12.5,1.6L12.5,1.6z"/>
	</g>
</g>
</svg>
