<?xml version="1.0" encoding="utf-8"?>
<!-- Generator: Adobe Illustrator 21.0.0, SVG Export Plug-In . SVG Version: 6.00 Build 0)  -->
<svg version="1.1" id="Capa_1" xmlns="http://www.w3.org/2000/svg" xmlns:xlink="http://www.w3.org/1999/xlink" x="0px" y="0px"
	 viewBox="0 0 30 30" style="enable-background:new 0 0 30 30;" xml:space="preserve">
<style type="text/css">
	.st0{fill:#5F6368;}
	.st1{fill:#0A858D;}
	.st2{fill:#626262;}
	.st3{fill:#424242;}
</style>
<g>
	<g>
		<g>
			<g>
				<path class="st0" d="M12.8,23.7l0.1-6.7L7.3,12V7.6l15.4,0.1v3.9L17,17.1l0.1,4.6L12.8,23.7z M8.1,11.7l5.6,5.1l-0.1,5.6
					l2.6-1.3l-0.1-4.4l5.7-5.6V8.5L8.1,8.4V11.7z"/>
				<path class="st0" d="M12.8,24.4c-0.1,0-0.2,0-0.4-0.1c-0.2-0.1-0.3-0.3-0.3-0.6l0.1-6.4l-5.4-4.9c-0.1-0.1-0.2-0.3-0.2-0.5V7.6
					c0-0.2,0.1-0.3,0.2-0.5C6.9,7,7.1,6.9,7.3,6.9h0L22.7,7c0.4,0,0.7,0.3,0.7,0.7v3.9c0,0.2-0.1,0.4-0.2,0.5l-5.5,5.3l0.1,4.3
					c0,0.3-0.1,0.5-0.4,0.6l-4.3,2.1C13,24.4,12.9,24.4,12.8,24.4z M8.8,11.4l5.4,4.9c0.1,0.1,0.2,0.3,0.2,0.5l-0.1,4.6l1.2-0.6
					l-0.1-4c0-0.2,0.1-0.4,0.2-0.5l5.5-5.4V9.1L8.8,9.1V11.4z"/>
			</g>
		</g>
	</g>
	<g>
		<path class="st0" d="M12.1,6.3c-0.3,0-0.5-0.1-0.8-0.2c-0.4-0.2-0.8-0.6-0.9-1c-0.2-0.5-0.1-1,0.1-1.4c0.4-0.9,1.5-1.3,2.4-0.9
			c0.9,0.4,1.3,1.5,0.9,2.4v0C13.4,5.9,12.8,6.3,12.1,6.3z M12.1,3.6c-0.4,0-0.7,0.2-0.9,0.5c-0.1,0.2-0.1,0.5,0,0.7
			c0.1,0.2,0.3,0.4,0.5,0.5c0.5,0.2,1,0,1.2-0.5c0.2-0.5,0-1-0.5-1.2C12.4,3.6,12.2,3.6,12.1,3.6z M13.3,5.1L13.3,5.1L13.3,5.1z"/>
	</g>
	<g>
		<path class="st0" d="M16.5,6.5c-0.3,0-0.5-0.1-0.8-0.2c-0.4-0.2-0.8-0.6-0.9-1c-0.2-0.5-0.1-1,0.1-1.4c0.2-0.4,0.6-0.8,1-0.9
			c0.5-0.2,1-0.1,1.4,0.1c0.4,0.2,0.8,0.6,0.9,1c0.2,0.5,0.1,1-0.1,1.4l0,0c-0.2,0.4-0.6,0.8-1,0.9C16.9,6.4,16.7,6.5,16.5,6.5z
			 M16.5,3.7c-0.1,0-0.2,0-0.3,0.1c-0.2,0.1-0.4,0.3-0.5,0.5c-0.1,0.2-0.1,0.5,0,0.7c0.1,0.2,0.3,0.4,0.5,0.5c0.2,0.1,0.5,0.1,0.7,0
			C17,5.4,17.2,5.3,17.3,5v0c0.1-0.2,0.1-0.5,0-0.7c-0.1-0.2-0.3-0.4-0.5-0.5C16.8,3.7,16.6,3.7,16.5,3.7z"/>
	</g>
	<g>
		<path class="st0" d="M19,3.1c-0.2,0-0.5-0.1-0.7-0.1c-0.4-0.2-0.7-0.5-0.8-0.9c-0.1-0.4-0.1-0.8,0.1-1.2c0.2-0.4,0.5-0.7,0.9-0.8
			C18.8,0,19.2,0,19.6,0.1c0.8,0.4,1.1,1.3,0.8,2.1v0c-0.2,0.4-0.5,0.7-0.9,0.8C19.3,3.1,19.1,3.1,19,3.1z M19,0.9
			c-0.1,0-0.2,0-0.2,0c-0.2,0.1-0.3,0.2-0.4,0.4c-0.1,0.2-0.1,0.4,0,0.5c0.1,0.2,0.2,0.3,0.4,0.4c0.2,0.1,0.4,0.1,0.5,0
			c0.2-0.1,0.3-0.2,0.4-0.4c0.2-0.3,0-0.7-0.3-0.9C19.2,0.9,19.1,0.9,19,0.9z M20,2L20,2L20,2z"/>
	</g>
	<g>
		<path class="st0" d="M15.1,26.6c-0.2,0-0.4,0-0.6-0.1c-0.4-0.2-0.6-0.5-0.7-0.8c-0.1-0.4-0.1-0.8,0.1-1.1c0.2-0.4,0.5-0.6,0.8-0.7
			c0.4-0.1,0.8-0.1,1.1,0.1c0.4,0.2,0.6,0.5,0.7,0.8c0.1,0.4,0.1,0.8-0.1,1.1l0,0C16.1,26.3,15.6,26.6,15.1,26.6z M15.1,24.6
			c-0.1,0-0.1,0-0.2,0c-0.1,0.1-0.3,0.2-0.3,0.3c-0.1,0.1-0.1,0.3,0,0.4c0.1,0.1,0.2,0.3,0.3,0.3c0.3,0.1,0.6,0,0.8-0.3
			c0.1-0.1,0.1-0.3,0-0.4c-0.1-0.1-0.2-0.3-0.3-0.3C15.2,24.6,15.2,24.6,15.1,24.6z M16,25.6L16,25.6L16,25.6z"/>
	</g>
	<g>
		<path class="st0" d="M15.1,30c-0.2,0-0.4,0-0.6-0.1c-0.4-0.2-0.6-0.5-0.7-0.8c-0.1-0.4-0.1-0.8,0.1-1.1c0.2-0.4,0.5-0.6,0.8-0.7
			c0.4-0.1,0.8-0.1,1.1,0.1c0.4,0.2,0.6,0.5,0.7,0.8c0.1,0.4,0.1,0.8-0.1,1.1l0,0C16.1,29.7,15.6,30,15.1,30z M15.1,28
			c-0.1,0-0.1,0-0.2,0c-0.1,0.1-0.3,0.2-0.3,0.3c-0.1,0.1-0.1,0.3,0,0.4c0.1,0.1,0.2,0.3,0.3,0.3c0.3,0.1,0.6,0,0.8-0.3
			c0.1-0.1,0.1-0.3,0-0.4c-0.1-0.1-0.2-0.3-0.3-0.3C15.2,28,15.2,28,15.1,28z M16,29L16,29L16,29z"/>
	</g>
	<g>
		<path class="st0" d="M14.6,3.1c-0.2,0-0.4,0-0.7-0.1c-0.4-0.2-0.7-0.5-0.8-0.9C13,1.7,13,1.3,13.2,0.9c0.2-0.4,0.5-0.7,0.9-0.8
			C14.5,0,14.9,0,15.3,0.1C15.7,0.3,16,0.6,16.1,1c0.1,0.4,0.1,0.8-0.1,1.2v0C15.8,2.8,15.2,3.1,14.6,3.1z M14.6,0.9
			c-0.1,0-0.2,0-0.2,0C14.2,1,14.1,1.1,14,1.3c-0.1,0.2-0.1,0.4,0,0.5s0.2,0.3,0.4,0.4c0.3,0.2,0.8,0,0.9-0.3c0.1-0.2,0.1-0.4,0-0.5
			c-0.1-0.2-0.2-0.3-0.4-0.4C14.8,0.9,14.7,0.9,14.6,0.9z M15.6,2L15.6,2L15.6,2z"/>
	</g>
</g>
</svg>
