<?xml version="1.0" encoding="utf-8"?>
<!-- Generator: Adobe Illustrator 21.0.0, SVG Export Plug-In . SVG Version: 6.00 Build 0)  -->
<svg version="1.1" id="Capa_1" xmlns="http://www.w3.org/2000/svg" xmlns:xlink="http://www.w3.org/1999/xlink" x="0px" y="0px"
	 viewBox="0 0 24 24" style="enable-background:new 0 0 24 24;" xml:space="preserve">
<style type="text/css">
	.st0{fill:#5F6368;}
	.st1{fill:#0A858D;}
	.st2{fill:#626262;}
</style>
<g>
	<g>
		<path class="st1" d="M9.3,9.9c-0.2,0-0.4,0-0.5-0.1L3.3,7.1C2.8,6.9,2.5,6.5,2.5,6V1.3C2.5,0.6,3.1,0,3.8,0h16.4
			c0.7,0,1.3,0.6,1.3,1.3v4.5c0,0.7-0.6,1.3-1.3,1.3h-9.7v1.6c0,0.4-0.2,0.8-0.6,1C9.7,9.8,9.5,9.9,9.3,9.9z M9.4,8.4L9.4,8.4
			L9.4,8.4z M4,5.9l5,2.4V6.8c0-0.7,0.5-1.2,1.2-1.2H20V1.5H4V5.9z"/>
		<g>
			<g>
				<path class="st1" d="M9.6,3.1H5.2c-0.4,0-0.6-0.3-0.6-0.6s0.3-0.6,0.6-0.6h4.4c0.4,0,0.6,0.3,0.6,0.6S10,3.1,9.6,3.1z"/>
			</g>
			<g>
				<path class="st1" d="M18.8,5H5.2C4.8,5,4.6,4.8,4.6,4.4s0.3-0.6,0.6-0.6h13.6c0.4,0,0.6,0.3,0.6,0.6S19.2,5,18.8,5z"/>
			</g>
		</g>
	</g>
	<g>
		<path class="st1" d="M14.8,16.6c-1,0-1.5,0.6-3.2,0.6s-2.1-0.6-3.2-0.6c-2.6,0-4.8,2.1-4.8,4.8v0.9c0,0.9,0.8,1.7,1.7,1.7h12.4
			c0.9,0,1.7-0.8,1.7-1.7v-0.9C19.5,18.8,17.4,16.6,14.8,16.6z M17.8,22.3H5.4v-0.9c0-1.7,1.4-3.1,3.1-3.1c0.5,0,1.4,0.6,3.2,0.6
			c1.8,0,2.6-0.6,3.2-0.6c1.7,0,3.1,1.4,3.1,3.1V22.3z"/>
		<path class="st1" d="M15,11c0,1.9-1.5,3.4-3.4,3.4S8.2,12.9,8.2,11c0-0.2,0-0.4,0.1-0.6c-0.1,0-0.2-0.1-0.3-0.1L6.7,9.7
			c-0.1,0.4-0.2,0.9-0.2,1.3c0,2.8,2.3,5.1,5.1,5.1s5.1-2.3,5.1-5.1c0-1.3-0.5-2.4-1.2-3.3h-3.1C13.9,8.1,15,9.4,15,11z"/>
	</g>
</g>
</svg>
