<?xml version="1.0" encoding="utf-8"?>
<!-- Generator: Adobe Illustrator 21.0.0, SVG Export Plug-In . SVG Version: 6.00 Build 0)  -->
<svg version="1.1" id="Capa_1" xmlns="http://www.w3.org/2000/svg" xmlns:xlink="http://www.w3.org/1999/xlink" x="0px" y="0px"
	 viewBox="0 0 30 30" style="enable-background:new 0 0 30 30;" xml:space="preserve">
<style type="text/css">
	.st0{fill:#5F6368;}
	.st1{fill:#0A858D;}
	.st2{fill:#626262;}
	.st3{fill:#424242;}
</style>
<g>
	<g>
		<path class="st0" d="M11.6,12.3c-0.2,0-0.4,0-0.7-0.1L4.1,8.9C3.5,8.7,3.2,8.1,3.2,7.5V1.6C3.2,0.7,3.9,0,4.8,0h20.4
			c0.9,0,1.6,0.7,1.6,1.6v5.6c0,0.9-0.7,1.6-1.6,1.6H13.1v2c0,0.5-0.3,1-0.7,1.3C12.2,12.2,11.9,12.3,11.6,12.3z M11.8,10.5
			L11.8,10.5L11.8,10.5z M5,7.3l6.3,3V8.5C11.3,7.7,12,7,12.8,7H25V1.8H5V7.3z"/>
		<g>
			<g>
				<path class="st0" d="M12,3.9H6.5C6,3.9,5.7,3.6,5.7,3.1S6,2.3,6.5,2.3H12c0.4,0,0.8,0.4,0.8,0.8S12.5,3.9,12,3.9z"/>
			</g>
			<g>
				<path class="st0" d="M23.5,6.3h-17C6,6.3,5.7,5.9,5.7,5.5S6,4.7,6.5,4.7h17c0.4,0,0.8,0.4,0.8,0.8S24,6.3,23.5,6.3z"/>
			</g>
		</g>
	</g>
	<g>
		<path class="st0" d="M18.5,20.8c-1.3,0-1.9,0.7-4,0.7s-2.7-0.7-4-0.7c-3.3,0-5.9,2.7-5.9,5.9v1.1c0,1.2,1,2.1,2.1,2.1h15.6
			c1.2,0,2.1-1,2.1-2.1v-1.1C24.4,23.5,21.8,20.8,18.5,20.8z M22.3,27.9H6.8v-1.1c0-2.1,1.7-3.8,3.8-3.8c0.6,0,1.7,0.7,4,0.7
			c2.3,0,3.3-0.7,4-0.7c2.1,0,3.8,1.7,3.8,3.8V27.9z"/>
		<path class="st0" d="M18.8,13.7c0,2.3-1.9,4.2-4.2,4.2s-4.2-1.9-4.2-4.2c0-0.3,0-0.5,0.1-0.7c-0.1,0-0.3-0.1-0.4-0.2l-1.6-0.7
			c-0.1,0.5-0.2,1.1-0.2,1.6c0,3.5,2.9,6.4,6.4,6.4s6.4-2.9,6.4-6.4c0-1.6-0.6-3-1.5-4.1h-3.8C17.4,10.1,18.8,11.7,18.8,13.7z"/>
	</g>
</g>
</svg>
