<?xml version="1.0" encoding="utf-8"?>
<!-- Generator: Adobe Illustrator 21.0.0, SVG Export Plug-In . SVG Version: 6.00 Build 0)  -->
<svg version="1.1" id="Capa_1" xmlns="http://www.w3.org/2000/svg" xmlns:xlink="http://www.w3.org/1999/xlink" x="0px" y="0px"
	 viewBox="0 0 24 24" style="enable-background:new 0 0 24 24;" xml:space="preserve">
<style type="text/css">
	.st0{fill:#5F6368;}
	.st1{fill:#0A858D;}
	.st2{fill:#626262;}
</style>
<g>
	<g>
		<path class="st0" d="M20.3,4.6l-3.9-3.9C16,0.2,15.4,0,14.8,0H5.3C4,0,3,1,3,2.3v19.5C3,23,4,24,5.3,24h13.5c1.2,0,2.2-1,2.2-2.2
			V6.2C21,5.6,20.7,5,20.3,4.6z M18.5,6H15V2.4L18.5,6z M5.3,21.8V2.3h7.5v4.9c0,0.6,0.5,1.1,1.1,1.1h4.9v13.5H5.3z M17,14.1
			c-0.6-0.6-2.2-0.4-3-0.3c-0.8-0.5-1.3-1.2-1.7-2.2c0.2-0.8,0.5-1.9,0.3-2.6c-0.2-1.2-1.8-1.1-2-0.3c-0.2,0.8,0,1.8,0.3,3.1
			c-0.5,1.1-1.2,2.6-1.7,3.5c-0.9,0.5-2.2,1.2-2.4,2.2c-0.2,0.7,1.2,2.6,3.6-1.5c1-0.3,2.2-0.8,3.2-0.9c0.9,0.5,1.9,0.8,2.6,0.8
			C17.3,15.9,17.5,14.6,17,14.1z M7.7,17.8c0.2-0.6,1.1-1.4,1.4-1.6C8.2,17.5,7.7,17.8,7.7,17.8z M11.5,8.8c0.3,0,0.3,1.5,0.1,1.9
			C11.4,10.1,11.4,8.8,11.5,8.8z M10.4,15.2c0.5-0.8,0.8-1.7,1.2-2.6c0.4,0.7,0.9,1.3,1.4,1.7C12,14.5,11.1,14.9,10.4,15.2z
			 M16.5,15c0,0-0.2,0.3-1.7-0.4C16.4,14.5,16.7,14.9,16.5,15z"/>
	</g>
	<g>
		<path class="st0" d="M12.4,17.9c0,0.3-0.1,0.5-0.3,0.7c-0.2,0.2-0.5,0.2-0.8,0.2H11v1h-0.6V17h0.9c0.3,0,0.6,0.1,0.8,0.2
			C12.3,17.4,12.4,17.6,12.4,17.9z M11,18.4h0.2c0.2,0,0.3,0,0.4-0.1c0.1-0.1,0.1-0.2,0.1-0.3c0-0.1,0-0.2-0.1-0.3
			c-0.1-0.1-0.2-0.1-0.4-0.1H11V18.4z"/>
		<path class="st0" d="M15.3,18.4c0,0.5-0.1,0.8-0.4,1.1c-0.3,0.3-0.7,0.4-1.2,0.4H13V17h0.9c0.5,0,0.8,0.1,1.1,0.4
			C15.2,17.6,15.3,18,15.3,18.4z M14.7,18.5c0-0.6-0.3-0.9-0.8-0.9h-0.3v1.9h0.3C14.4,19.4,14.7,19.1,14.7,18.5z"/>
		<path class="st0" d="M16.5,19.9h-0.6V17h1.7v0.5h-1.1v0.7h1v0.5h-1V19.9z"/>
	</g>
</g>
</svg>
