<?xml version="1.0" encoding="utf-8"?>
<!-- Generator: Adobe Illustrator 21.0.0, SVG Export Plug-In . SVG Version: 6.00 Build 0)  -->
<svg version="1.1" id="Capa_1" xmlns="http://www.w3.org/2000/svg" xmlns:xlink="http://www.w3.org/1999/xlink" x="0px" y="0px"
	 viewBox="0 0 24 24" style="enable-background:new 0 0 24 24;" xml:space="preserve">
<style type="text/css">
	.st0{fill:#5F6368;}
	.st1{fill:#0A858D;}
	.st2{fill:#626262;}
</style>
<g>
	<g>
		<g>
			<g>
				<g>
					<g>
						<path class="st0" d="M22,21.5H2c-0.6,0-1-0.2-1.2-0.6c-0.2-0.4-0.2-0.9,0.1-1.3l9.9-16.4c0.3-0.5,0.7-0.7,1.1-0.7h0
							c0.4,0,0.9,0.3,1.1,0.7l9.9,16.4c0.3,0.5,0.3,1,0.1,1.3C23,21.3,22.6,21.5,22,21.5z M12,3.1L12,3.1c-0.2,0-0.4,0.2-0.6,0.4
							L1.5,19.9c-0.2,0.3-0.2,0.5-0.1,0.7s0.3,0.2,0.6,0.2h20c0.3,0,0.5-0.1,0.6-0.2c0.1-0.2,0-0.4-0.1-0.7L12.6,3.6
							C12.4,3.3,12.2,3.1,12,3.1z"/>
						<path class="st0" d="M22,22H2c-0.7,0-1.3-0.3-1.6-0.8c-0.3-0.5-0.3-1.2,0.1-1.8L10.4,3c0.4-0.6,0.9-1,1.5-1
							c0.6,0,1.2,0.4,1.5,1l9.9,16.4c0.4,0.6,0.4,1.3,0.1,1.8C23.3,21.7,22.7,22,22,22z M1.8,20.4c0,0,0.1,0,0.2,0h20
							c0.1,0,0.2,0,0.2,0c0,0,0-0.1-0.1-0.2L12.2,3.8C12.1,3.7,12,3.6,12,3.6c0,0-0.1,0.1-0.2,0.2L1.9,20.2
							C1.8,20.3,1.8,20.3,1.8,20.4z"/>
					</g>
					<g>
						<path class="st0" d="M22,21.7H2c-0.6,0-1.1-0.2-1.4-0.7s-0.2-1,0.1-1.6l9.9-16.4C11,2.6,11.5,2.3,12,2.3c0.5,0,1,0.3,1.3,0.8
							l9.9,16.4c0.3,0.6,0.4,1.1,0.1,1.6C23.1,21.5,22.6,21.7,22,21.7z M12,2.7c-0.4,0-0.7,0.2-1,0.6L1.1,19.7
							c-0.3,0.4-0.3,0.8-0.1,1.1c0.2,0.3,0.5,0.5,1,0.5h20c0.5,0,0.9-0.2,1-0.5c0.2-0.3,0.1-0.7-0.1-1.1L13,3.3
							C12.7,2.9,12.4,2.7,12,2.7z M22,21.1H2c-0.4,0-0.7-0.1-0.8-0.4c-0.1-0.2-0.1-0.5,0.1-0.9l9.9-16.4c0.2-0.3,0.5-0.5,0.8-0.5h0
							c0.3,0,0.5,0.2,0.8,0.5l9.9,16.4c0.2,0.3,0.2,0.7,0.1,0.9C22.7,20.9,22.4,21.1,22,21.1z M12,3.4c-0.1,0-0.3,0.1-0.4,0.3
							L1.7,20c-0.1,0.2-0.1,0.4-0.1,0.5c0,0.1,0.2,0.1,0.5,0.1h20c0.3,0,0.4-0.1,0.4-0.1c0-0.1,0-0.2-0.1-0.5L12.4,3.7
							C12.3,3.5,12.1,3.4,12,3.4L12,3.4z"/>
						<path class="st0" d="M22,22.2H2c-0.8,0-1.5-0.3-1.8-0.9c-0.3-0.6-0.3-1.3,0.1-2l9.9-16.4c0.4-0.7,1-1.1,1.7-1.1
							s1.3,0.4,1.7,1.1l9.9,16.4c0.4,0.7,0.5,1.4,0.1,2C23.4,21.9,22.8,22.2,22,22.2z M2.1,20.2h19.7L12,3.9c0,0,0,0,0,0
							c0,0,0,0,0,0L2.1,20.2z"/>
					</g>
				</g>
			</g>
		</g>
	</g>
	<g>
		<g>
			<path class="st0" d="M11.7,19.4c-0.5-0.1-0.8-0.5-0.9-0.9c-0.2-0.7,0.3-1.4,0.9-1.5c0.8-0.2,1.5,0.4,1.5,1.2
				C13.2,19,12.5,19.6,11.7,19.4z"/>
			<path class="st0" d="M12,19.9c-0.1,0-0.3,0-0.5-0.1c-0.6-0.2-1-0.6-1.2-1.3c-0.1-0.5,0-1,0.2-1.4c0.2-0.4,0.6-0.6,1-0.7
				c0.5-0.1,1,0,1.4,0.3c0.4,0.3,0.6,0.8,0.6,1.4c0,0.6-0.2,1.1-0.6,1.4C12.7,19.8,12.4,19.9,12,19.9z M12,17.4c-0.1,0-0.1,0-0.2,0
				c-0.2,0-0.3,0.1-0.4,0.3c-0.1,0.2-0.2,0.4-0.1,0.7c0.1,0.4,0.3,0.5,0.5,0.6l0,0c0.2,0.1,0.5,0,0.6-0.1c0.2-0.1,0.3-0.4,0.3-0.7
				c0-0.3-0.1-0.5-0.3-0.6C12.4,17.4,12.2,17.4,12,17.4z"/>
		</g>
		<g>
			<path class="st0" d="M10.6,8.5c0.2-0.9,1.1-1.4,1.9-1.1c0.5,0.2,0.8,0.7,0.9,1.2c0,0.2,0,0.4,0,0.6c0,1.2-0.3,2.3-0.5,3.4
				c-0.1,0.6-0.3,1.2-0.5,1.8c0,0.1-0.1,0.3-0.2,0.4c-0.2,0.2-0.4,0.2-0.5,0c-0.1-0.1-0.2-0.2-0.2-0.4c-0.4-1.4-0.8-2.8-0.9-4.2
				C10.5,9.7,10.4,9.1,10.6,8.5z"/>
			<path class="st0" d="M12,15.5c-0.2,0-0.4-0.1-0.6-0.3c-0.2-0.2-0.3-0.4-0.3-0.6c-0.5-1.7-0.8-3-1-4.3l0-0.1
				c-0.1-0.6-0.2-1.2,0-1.9v0c0.1-0.6,0.5-1.1,1-1.3c0.5-0.2,1-0.3,1.5-0.1c0.6,0.2,1,0.8,1.2,1.5C14,8.8,14,9,14,9.2l0,0.1
				c0,1.2-0.3,2.4-0.5,3.5c-0.1,0.6-0.3,1.2-0.5,1.9c-0.1,0.2-0.1,0.4-0.3,0.6C12.4,15.4,12.2,15.5,12,15.5z M12.1,14.6L12.1,14.6
				L12.1,14.6z M11,8.7c-0.1,0.5-0.1,1,0,1.5l0,0.1c0.2,1.2,0.4,2.5,0.9,4.2c0,0,0,0,0,0.1c0,0,0-0.1,0-0.1c0.2-0.6,0.3-1.2,0.5-1.8
				c0.3-1.2,0.5-2.2,0.5-3.3l0,0c0-0.2,0-0.3,0-0.5c-0.1-0.5-0.3-0.7-0.7-0.9c-0.3-0.1-0.5-0.1-0.8,0C11.3,8.1,11.1,8.3,11,8.7
				L11,8.7z"/>
		</g>
	</g>
</g>
</svg>
