<?xml version="1.0" encoding="utf-8"?>
<!-- Generator: Adobe Illustrator 21.0.0, SVG Export Plug-In . SVG Version: 6.00 Build 0)  -->
<svg version="1.1" id="Capa_1" xmlns="http://www.w3.org/2000/svg" xmlns:xlink="http://www.w3.org/1999/xlink" x="0px" y="0px"
	 viewBox="0 0 24 24" style="enable-background:new 0 0 24 24;" xml:space="preserve">
<style type="text/css">
	.st0{fill:#5F6368;}
	.st1{fill:#0A858D;}
	.st2{fill:#626262;}
</style>
<g>
	<g>
		<path class="st2" d="M22.5,5.3v16.5c0,1.2-1,2.3-2.3,2.3H3.8c-1.2,0-2.3-1-2.3-2.3V5.3C1.5,4,2.5,3,3.8,3H6V0.6C6,0.3,6.3,0,6.6,0
			h1.9C8.7,0,9,0.3,9,0.6V3h6V0.6C15,0.3,15.3,0,15.6,0h1.9C17.7,0,18,0.3,18,0.6V3h2.3C21.5,3,22.5,4,22.5,5.3z M20.3,21.5v-14H3.8
			v14c0,0.2,0.1,0.3,0.3,0.3H20C20.1,21.8,20.3,21.6,20.3,21.5z"/>
	</g>
	<g>
		<path class="st2" d="M10,18.3h-2v-3.8c0-0.5,0-0.9,0-1.3c-0.1,0.1-0.3,0.3-0.5,0.5l-0.8,0.7l-1-1.2l2.5-2H10V18.3z"/>
		<path class="st2" d="M17,16.9h-0.8v1.4h-1.9v-1.4h-2.9v-1.4l3-4.4h1.8v4.4H17V16.9z M14.3,15.4v-0.8c0-0.2,0-0.4,0-0.6
			c0-0.3,0-0.4,0-0.4h-0.1c-0.1,0.3-0.2,0.5-0.4,0.7l-0.8,1.2H14.3z"/>
	</g>
</g>
</svg>
